<?xml version="1.0" encoding="utf-8"?>
<!-- Generator: Adobe Illustrator 23.0.1, SVG Export Plug-In . SVG Version: 6.00 Build 0)  -->
<svg version="1.1" id="Layer_1" xmlns="http://www.w3.org/2000/svg" xmlns:xlink="http://www.w3.org/1999/xlink" x="0px" y="0px"
	 viewBox="0 0 1000 1000" style="enable-background:new 0 0 1000 1000;" xml:space="preserve">
<style type="text/css">
	.st0{fill:#99D9E8;}
	.st1{fill:none;stroke:#000000;stroke-width:9.7809;stroke-linecap:round;stroke-linejoin:round;}
	.st2{fill:#FF0000;}
	.st3{fill:#99D9E8;stroke:#000000;stroke-width:9.7809;stroke-linecap:round;stroke-linejoin:round;}
	.st4{fill:#FFCC00;}
	.st5{fill:#C1A041;}
	.st6{fill:#FFFFFF;}
	.st7{fill:none;stroke:#000000;stroke-width:10.6481;stroke-linecap:round;stroke-linejoin:round;}
</style>
<g>
	<path class="st0" d="M747.85,726.7l-19.42,49.31l70.22,53.79c0,0,19.43-26.89,19.43-52.3C818.08,752.1,761.3,728.2,747.85,726.7"/>
	<path class="st1" d="M747.85,726.7l-19.42,49.31l70.22,53.79c0,0,19.43-26.89,19.43-52.3C818.08,752.1,761.3,728.2,747.85,726.7
		L747.85,726.7z"/>
	<path class="st0" d="M652.23,919.45l-5.46-98.19c-86.95,39.56-182.78,7.23-225.64-11.63l-1.46,0.37l-22.17,53.21
		c64.05-11.45,93.58,25.34,106.49,53.26C547.44,929.56,598.87,935.17,652.23,919.45"/>
	<path class="st1" d="M652.23,919.45l-5.46-98.19c-86.95,39.56-182.78,7.23-225.64-11.63l-1.46,0.37l-22.17,53.21
		c64.05-11.45,93.58,25.34,106.49,53.26C547.44,929.56,598.87,935.17,652.23,919.45L652.23,919.45z"/>
	<path class="st2" d="M574.42,756.9c-0.38,2.27-2.55,4.01-2.55,4.01S572.73,759.23,574.42,756.9c0.58-3.45-2.98-8.14-24.65-9.8
		c-24.81-1.91-36.44,23.86-41.26,39.98c4.99,0.6,8.04,1.02,8.04,1.02s115.75,50.04,102.08-39.87
		C594.36,735.09,579.9,749.39,574.42,756.9"/>
	<path class="st1" d="M574.42,756.9c-0.38,2.27-2.55,4.01-2.55,4.01S572.73,759.23,574.42,756.9c0.58-3.45-2.98-8.14-24.65-9.8
		c-24.81-1.91-36.44,23.86-41.26,39.98c4.99,0.6,8.04,1.02,8.04,1.02s115.75,50.04,102.08-39.87
		C594.36,735.09,579.9,749.39,574.42,756.9L574.42,756.9z"/>
	<path class="st3" d="M646.77,821.26l5.46,98.19c147.19-4.77,165.85-141.94,165.85-141.94l-180.14-26.46L646.77,821.26z"/>
	<path class="st4" d="M588.28,843.53c0,0,68.47,35.86,94.55-58.69c0,0-7.52,25.59-15.74,36.46c0,0,78.97-21.43,61.39-111.44
		c0,0,5.55,30.71,0.26,45.97c0,0,64.94-6.85,38.86-75.32c-26.08-68.46-52.17-32.6-42.39-58.68c0,0-3.26-26.08,22.83-48.9
		c0,0,26.08-48.9-13.04-78.25c0,0,26.08-39.12,3.26-74.99c0,0-9.78-48.91,6.52-61.95c0,0,16.3-65.21-32.6-107.59
		c0,0,52.16-52.16,71.73-52.16l-58.69-3.26c0,0,35.86-61.95,45.64-65.21c0,0-45.64-6.52-84.77,29.34c0,0-3.26-68.47-42.39-88.03
		v84.77c0,0-22.82-65.21-55.43-61.95c0,0,8.03,87.97-5.01,101.01l21.32,6.58c0,0-96.44-43.51-152.46,77.3l22.05,4.21
		c0,0-59.29-20.79-78.25,29.34c0,0,28.34-1.94,48.9,6.52c0,0-82.84-31.62-95.68,41.62c0,0,32.86-9.39,66.34-5.76
		c0,0-99.83-10.83-104.33,48.9l79.31,101.77c0,0-25.67-11.89-33.66,9.08c0,0-117.37-13.05-107.59,61.95
		c9.78,74.99,117.37,39.12,130.42,0c0,0-2.41,8.86-13.64,18.86L588.28,843.53"/>
	<path class="st1" d="M588.28,843.53c0,0,68.47,35.86,94.55-58.69c0,0-7.52,25.59-15.74,36.46c0,0,78.97-21.43,61.39-111.44
		c0,0,5.55,30.71,0.26,45.97c0,0,64.94-6.85,38.86-75.32c-26.08-68.46-52.17-32.6-42.39-58.68c0,0-3.26-26.08,22.83-48.9
		c0,0,26.08-48.9-13.04-78.25c0,0,26.08-39.12,3.26-74.99c0,0-9.78-48.91,6.52-61.95c0,0,16.3-65.21-32.6-107.59
		c0,0,52.16-52.16,71.73-52.16l-58.69-3.26c0,0,35.86-61.95,45.64-65.21c0,0-45.64-6.52-84.77,29.34c0,0-3.26-68.47-42.39-88.03
		v84.77c0,0-22.82-65.21-55.43-61.95c0,0,8.03,87.97-5.01,101.01l21.32,6.58c0,0-96.44-43.51-152.46,77.3l22.05,4.21
		c0,0-59.29-20.79-78.25,29.34c0,0,28.34-1.94,48.9,6.52c0,0-82.84-31.62-95.68,41.62c0,0,32.86-9.39,66.34-5.76
		c0,0-99.83-10.83-104.33,48.9l79.31,101.77c0,0-25.67-11.89-33.66,9.08c0,0-117.37-13.05-107.59,61.95
		c9.78,74.99,117.37,39.12,130.42,0c0,0-2.41,8.86-13.64,18.86L588.28,843.53L588.28,843.53z"/>
	<path class="st5" d="M650.23,726.16c-16.3-97.81-149.97-97.81-149.97-97.81s-67.65-39.97-134.27-33.31
		c-29.43,26.22-93.72,40.46-112.31-2.33l-7.72-0.22l-26.08,22.82c0,0-91.29-3.26-91.29,32.61c0,0,45.65,74.99,97.81,32.6
		c0,0,65.21,42.39,104.33-3.26c0,0,52.17,45.64,88.03,0c0,0,58.69,22.82,88.03-6.52c0,0,91.29-26.09,110.85,71.73
		c19.56,97.81-101.07,45.64-101.07,45.64s-36.9-5.1-63.78-5.03c-11.85,4.53-24.25,1.77-24.25,1.77c4.61-3.69,13.65-8.31,24.25-8.34
		c17.78-6.81,31.29-24.56,2.62-61.34c-6.2,5.42-13.52,8.81-20,10.9l-0.34,0.1l3.26,22.82c0,0-65.21-3.26-65.21,39.12
		c0,42.39,74.99,32.6,74.99,32.6s13.04,45.65,61.95,32.61c0,0,65.21,58.68,97.81-32.61C607.84,820.71,666.53,823.97,650.23,726.16"
		/>
	<path class="st1" d="M650.23,726.16c-16.3-97.81-149.97-97.81-149.97-97.81s-67.65-39.97-134.27-33.31
		c-29.43,26.22-93.72,40.46-112.31-2.33l-7.72-0.22l-26.08,22.82c0,0-91.29-3.26-91.29,32.61c0,0,45.65,74.99,97.81,32.6
		c0,0,65.21,42.39,104.33-3.26c0,0,52.17,45.64,88.03,0c0,0,58.69,22.82,88.03-6.52c0,0,91.29-26.09,110.85,71.73
		c19.56,97.81-101.07,45.64-101.07,45.64s-36.9-5.1-63.78-5.03c-11.85,4.53-24.25,1.77-24.25,1.77c4.61-3.69,13.65-8.31,24.25-8.34
		c17.78-6.81,31.29-24.56,2.62-61.34c-6.2,5.42-13.52,8.81-20,10.9l-0.34,0.1l3.26,22.82c0,0-65.21-3.26-65.21,39.12
		c0,42.39,74.99,32.6,74.99,32.6s13.04,45.65,61.95,32.61c0,0,65.21,58.68,97.81-32.61C607.84,820.71,666.53,823.97,650.23,726.16
		L650.23,726.16z M640.45,543.58c0,0,35.86-88.03,94.55-48.9 M660.01,660.95c0,0,42.39,42.39,65.21-22.82 M513.3,289.27
		c0,0,68.46,0,91.29,26.08 M493.73,331.66c0,0,61.95-16.3,91.29,16.3 M467.65,367.52c0,0,78.25-13.04,107.59,16.3"/>
	<path class="st6" d="M330.72,677.25c-9.93,11.58-21.54,17.48-33.33,19.86c0.66,11.83,7.06,30.12,39.85,32.31
		c30.2,2.01,41.74-17.1,46.16-32.03C355.96,699.31,330.72,677.25,330.72,677.25"/>
	<path class="st1" d="M330.72,677.25c-9.93,11.58-21.54,17.48-33.33,19.86c0.66,11.83,7.06,30.12,39.85,32.31
		c30.2,2.01,41.74-17.1,46.16-32.03C355.96,699.31,330.72,677.25,330.72,677.25L330.72,677.25z"/>
	<path class="st6" d="M418.75,729.42c0,0,7.27-0.39,16.3-3.25v-0.01l0.34-0.1c14.26-4.59,32.67-15.4,33.95-40.5
		c-25.55,1.43-50.6-8.31-50.6-8.31c-16.43,20.92-36.28,22.64-52.97,18.4c-0.8,4.69-0.75,9.53,0.81,14.2
		C366.58,709.86,379.62,739.2,418.75,729.42"/>
	<path class="st1" d="M418.75,729.42c0,0,7.27-0.39,16.3-3.25v-0.01l0.34-0.1c14.26-4.59,32.67-15.4,33.95-40.5
		c-25.55,1.43-50.6-8.31-50.6-8.31c-16.43,20.92-36.28,22.64-52.97,18.4c-0.8,4.69-0.75,9.53,0.81,14.2
		C366.58,709.86,379.62,739.2,418.75,729.42L418.75,729.42z"/>
	<path class="st6" d="M506.77,670.73c-12.54,12.54-30.43,15.54-46.81,14.88c3.82,11.99,13.81,32.15,37.03,27.5
		c27.57-5.51,45.81-18.03,40.93-45.41C520.24,666.91,506.77,670.73,506.77,670.73"/>
	<path class="st1" d="M506.77,670.73c-12.54,12.54-30.43,15.54-46.81,14.88c3.82,11.99,13.81,32.15,37.03,27.5
		c27.57-5.51,45.81-18.03,40.93-45.41C520.24,666.91,506.77,670.73,506.77,670.73L506.77,670.73z"/>
	<path class="st6" d="M585.53,684.27c-14.47-11.36-31.06-15.48-45.29-16.44C540.49,710.45,568.6,696.54,585.53,684.27"/>
	<path class="st1" d="M585.53,684.27c-14.47-11.36-31.06-15.48-45.29-16.44C540.49,710.45,568.6,696.54,585.53,684.27L585.53,684.27
		z M682.83,595.74c0,0,39.12-6.52-3.26-35.86c0,0,3.26-39.12,29.34-39.12"/>
	<path class="st6" d="M598.06,494.67c0,48.62-46.71,88.03-104.33,88.03c-57.62,0-104.33-39.41-104.33-88.03
		c0-48.62,46.71-88.03,104.33-88.03C551.36,406.64,598.06,446.05,598.06,494.67"/>
	<path class="st7" d="M598.06,494.67c0,48.62-46.71,88.03-104.33,88.03c-57.62,0-104.33-39.41-104.33-88.03
		c0-48.62,46.71-88.03,104.33-88.03C551.36,406.64,598.06,446.05,598.06,494.67L598.06,494.67z"/>
	<path class="st6" d="M356.8,514.24c6.51-17.35,23.1-13.06,33.49-8.25c-0.57-3.71-0.89-7.48-0.89-11.32
		c0-33.63,22.36-62.84,55.21-77.67c-18.95-16.44-45.44-26.66-74.77-26.66c-57.62,0-104.33,39.41-104.33,88.03
		c0,16.36,5.31,31.67,14.52,44.79C311.97,509.26,356.8,514.24,356.8,514.24"/>
	<path class="st7" d="M356.8,514.24c6.51-17.35,23.1-13.06,33.49-8.25c-0.57-3.71-0.89-7.48-0.89-11.32
		c0-33.63,22.36-62.84,55.21-77.67c-18.95-16.44-45.44-26.66-74.77-26.66c-57.62,0-104.33,39.41-104.33,88.03
		c0,16.36,5.31,31.67,14.52,44.79C311.97,509.26,356.8,514.24,356.8,514.24L356.8,514.24z"/>
	<path d="M519.82,494.67c0,9-7.3,16.3-16.3,16.3c-9,0-16.3-7.3-16.3-16.3c0-9,7.3-16.3,16.3-16.3
		C512.52,478.37,519.82,485.67,519.82,494.67"/>
	<path d="M324.2,475.11c0,9-7.3,16.3-16.3,16.3c-9,0-16.3-7.3-16.3-16.3c0-9,7.3-16.31,16.3-16.31
		C316.9,458.81,324.2,466.11,324.2,475.11"/>
	<path class="st1" d="M651.19,523.93l-167.76,3.44 M249.21,576.18c-4.4-33.72,16.92-49.63,41.7-56.94
		c-3.87-24.98-25.42-44.13-51.48-44.13c-28.81,0-52.17,23.35-52.17,52.17c0,28.81,23.36,52.16,52.17,52.16
		c3.49,0,6.89-0.36,10.18-1.01C249.49,577.67,249.31,576.97,249.21,576.18L249.21,576.18z M448.09,527.28l-39.12,32.6
		 M464.39,537.06l-35.86,29.34 M252.47,510.97l-39.12,22.82 M226.39,546.84l35.86-22.82 M356.8,514.24c0,0,5.81-20.98,33.49-8.25
		 M699.14,331.66c0,0-42.39,9.78-19.56,61.95c22.82,52.17-9.78,48.9-9.78,48.9"/>
	<path d="M721.96,357.74c0,9-4.38,16.3-9.78,16.3c-5.4,0-9.78-7.3-9.78-16.3c0-9,4.38-16.3,9.78-16.3
		C717.58,341.44,721.96,348.74,721.96,357.74"/>
	<path d="M721.96,426.2c0,9-4.38,16.3-9.78,16.3c-5.4,0-9.78-7.3-9.78-16.3c0-9,4.38-16.3,9.78-16.3
		C717.58,409.9,721.96,417.2,721.96,426.2"/>
	<path class="st1" d="M534.74,667.61c1.03,0.01,2.12,0.08,3.18,0.13c0-0.01,0-0.02,0-0.03
		C536.84,667.66,535.78,667.62,534.74,667.61L534.74,667.61z M574.42,756.9c-1.69,2.33-2.55,4.01-2.55,4.01
		S574.04,759.18,574.42,756.9L574.42,756.9z"/>
	<path d="M549.77,747.1c21.67,1.67,25.23,6.35,24.65,9.8c5.48-7.51,19.94-21.81,44.21-8.67c-0.28-1.87-0.6-3.78-1-5.77
		c-5.8-29.01-17.92-47.06-32.09-58.19c-16.93,12.27-45.05,26.17-45.29-16.45c-0.8-0.05-1.54-0.06-2.32-0.09
		c4.86,27.36-13.37,39.87-40.93,45.38c-15.22,3.04-24.73-4.58-30.57-13.57c-2.53,6.51-6.46,11.62-11.02,15.61
		c28.67,36.78,15.16,54.54-2.62,61.34c-10.6,0.03-19.64,4.66-24.25,8.34c0,0,12.41,2.76,24.25-1.77
		c19.16-0.05,43.39,2.53,55.74,4.01C513.33,770.96,524.96,745.19,549.77,747.1"/>
	<path class="st1" d="M481.84,536.12c0,28.87-23.41,52.28-52.28,52.28c-28.87,0-52.28-23.41-52.28-52.28
		c0-28.87,23.4-52.27,52.28-52.27C458.43,483.85,481.84,507.25,481.84,536.12L481.84,536.12z"/>
</g>
</svg>
