<?xml version="1.0" encoding="utf-8"?>
<!-- Generator: Adobe Illustrator 23.0.1, SVG Export Plug-In . SVG Version: 6.00 Build 0)  -->
<svg version="1.1" id="Layer_1" xmlns="http://www.w3.org/2000/svg" xmlns:xlink="http://www.w3.org/1999/xlink" x="0px" y="0px"
	 viewBox="0 0 1000 1000" style="enable-background:new 0 0 1000 1000;" xml:space="preserve">
<style type="text/css">
	.st0{fill:#FF0000;stroke:#000000;stroke-width:11.5443;stroke-linecap:round;stroke-linejoin:round;}
	.st1{fill:#FFCC00;}
	.st2{fill:none;stroke:#000000;stroke-width:10.0789;stroke-linecap:round;stroke-linejoin:round;}
	.st3{fill:#FFFFFF;}
</style>
<g>
	<path class="st0" d="M392.82,903.75c165.61,63.5,227.39-3.9,227.39-3.9L623.19,789l-214.31-4.3L392.82,903.75z"/>
	<g>
		<path class="st1" d="M424.11,814.86l-1.48,25.49c47.15,56.49,173.53,3.85,173.53,3.85c6.2-17.06,16.19-30.92,25.85-41.41
			l4.08-51.78c29.49-3.98,46.12-41.62,46.12-41.62s11.2-45.45-31.52-56.03l92.05-233.43l52.74-122.25l53.94-62.33l-63.52,13.78
			L806.46,194c0,0-71.31,36.56-70.71,33.56c0.6-3,17.98-74.91,17.98-74.91L689,194l1.2-72.52l-51.54,47.34l-7.19-77.31l-51.54,53.93
			l-14.38-70.12L523,129.87l-20.98-71.91l-37.16,60.53L433.7,53.77l-24.57,59.33l-24.57-59.93l-11.99,66.52l-72.51,211.55
			c0,0-27.57,4.2-30.56,37.76l-1.12,4.94c-23.48,11.97-41.11,33.78-47.45,60c8.87-0.86,20.66-1.52,34.04-1.12l-19.03,83.6
			L180.2,675.23c0,0,42.55,79.11,194.77,95.29C374.97,770.52,398.94,812.47,424.11,814.86"/>
		<path class="st2" d="M424.11,814.86l-1.48,25.49c47.15,56.49,173.53,3.85,173.53,3.85c6.2-17.06,16.19-30.92,25.85-41.41
			l4.08-51.78c29.49-3.98,46.12-41.62,46.12-41.62s11.2-45.45-31.52-56.03l92.05-233.43l52.74-122.25l53.94-62.33l-63.52,13.78
			L806.46,194c0,0-71.31,36.56-70.71,33.56c0.6-3,17.98-74.91,17.98-74.91L689,194l1.2-72.52l-51.54,47.34l-7.19-77.31l-51.54,53.93
			l-14.38-70.12L523,129.87l-20.98-71.91l-37.16,60.53L433.7,53.77l-24.57,59.33l-24.57-59.93l-11.99,66.52l-72.51,211.55
			c0,0-27.57,4.2-30.56,37.76l-1.12,4.94c-23.48,11.97-41.11,33.78-47.45,60c8.87-0.86,20.66-1.52,34.04-1.12l-19.03,83.6
			L180.2,675.23c0,0,42.55,79.11,194.77,95.29C374.97,770.52,398.94,812.47,424.11,814.86L424.11,814.86z"/>
		<path class="st2" d="M309.83,364.01c-43.1,0-79.22,29.81-88.92,69.92c32.93-3.19,106.11-3.87,151.84,44.29
			c5.41-15.43,14.84-28.97,27.03-39.37"/>
		<path class="st2" d="M425.95,423.18c-24.82,9.67-44.37,29.86-53.2,55.09c36.56-0.77,116.3,5.64,169.09,69.32
			c5.62-11.86,8.77-25.12,8.77-39.11c0-25.26-10.24-48.14-26.8-64.7"/>
		<path class="st3" d="M369.16,525.13c-1-5.4-1.54-10.96-1.54-16.66c0-10.61,1.82-20.79,5.14-30.26
			c-45.73-48.15-118.92-47.48-151.84-44.29c-1.68,6.92-2.58,14.14-2.58,21.57c0,35.04,19.71,65.47,48.64,80.84
			C286.21,494.3,313.38,508.22,369.16,525.13"/>
		<path class="st2" d="M369.16,525.13c-1-5.4-1.54-10.96-1.54-16.66c0-10.61,1.82-20.79,5.14-30.26
			c-45.73-48.15-118.92-47.48-151.84-44.29c-1.68,6.92-2.58,14.14-2.58,21.57c0,35.04,19.71,65.47,48.64,80.84
			C286.21,494.3,313.38,508.22,369.16,525.13L369.16,525.13z"/>
		<path class="st3" d="M372.75,478.27c-3.31,9.46-5.13,19.62-5.13,30.21c0,50.53,40.96,91.5,91.5,91.5
			c36.54,0,68.06-21.42,82.73-52.38C489.05,483.91,409.31,477.5,372.75,478.27"/>
		<path class="st2" d="M372.75,478.27c-3.31,9.46-5.13,19.62-5.13,30.21c0,50.53,40.96,91.5,91.5,91.5
			c36.54,0,68.06-21.42,82.73-52.38C489.05,483.91,409.31,477.5,372.75,478.27L372.75,478.27z"/>
		<path d="M295.39,450.69c0,13.3,10.78,24.08,24.08,24.08c11.77,0,21.56-8.45,23.65-19.62c-14.19-8.09-29.34-13.44-44.26-16.87
			C296.67,441.91,295.39,446.14,295.39,450.69"/>
		<path d="M483.2,522.93c0,13.3,10.78,24.08,24.08,24.08c9.47,0,17.63-5.48,21.57-13.42c-11.96-11.6-24.86-20.84-38.07-28.16
			C486.12,509.81,483.2,516.02,483.2,522.93"/>
		<path class="st2" d="M324.28,590.35c0,0-77.05-9.63-57.79-52.97c19.26-43.34,46.42-29.29,102.67-12.24 M584.72,719.58
			c0,0,5.99,32.96,37.76,31.76c31.76-1.2,49.74-41.95,49.74-41.95s12.59-50.94-39.55-57.53c0,0-23.38-3-33.56,11.99 M619.48,715.98
			c0,0,12.58-22.17-2.4-32.36c-14.98-10.19,30.57-1.8,29.97,22.77 M476.85,745.35c0,0,0.6,32.36,33.56,35.36 M374.97,770.52
			c0,0,67.12,8.39,109.67-2.4"/>
	</g>
</g>
</svg>
