<?xml version="1.0" encoding="utf-8"?>
<!-- Generator: Adobe Illustrator 23.0.1, SVG Export Plug-In . SVG Version: 6.00 Build 0)  -->
<svg version="1.1" id="Layer_1" xmlns="http://www.w3.org/2000/svg" xmlns:xlink="http://www.w3.org/1999/xlink" x="0px" y="0px"
	 viewBox="0 0 1000 1000" style="enable-background:new 0 0 1000 1000;" xml:space="preserve">
<style type="text/css">
	.st0{fill:#00684C;}
	.st1{fill:none;stroke:#000000;stroke-width:7.1797;stroke-linecap:round;stroke-linejoin:round;}
	.st2{fill:#7F7F7F;}
	.st3{fill:#FFFFFF;}
	.st4{fill:#F6A47F;}
	.st5{fill:#FFCC00;}
	.st6{fill:#B3B3B3;}
</style>
<path class="st0" d="M740.59,627.14c0,0-23.12-172.49-115.59-167.16c-92.47,5.33-136.93,168.94-136.93,168.94
	c5.33,12.45,32.01,30.23,32.01,30.23l-26.68,30.23c8.89,55.13,97.8,227.62,97.8,227.62c-8.12-39-8.12-41.91-8.12-41.91
	c-13.83-47.29-47-146.59-45.22-249.73c1.78-103.14,64.02-142.26,90.7-138.71c26.67,3.56,42.68,28.45,46.23,97.81
	S609,822.75,609,822.75C587.66,881.43,591.22,917,591.22,917c96.02-129.82,120.93-213.4,120.93-213.4l-24.9-37.34L740.59,627.14"/>
<path class="st1" d="M740.59,627.14c0,0-23.12-172.49-115.59-167.16c-92.47,5.33-136.93,168.94-136.93,168.94
	c5.33,12.45,32.01,30.23,32.01,30.23l-26.68,30.23c8.89,55.13,97.8,227.62,97.8,227.62c-8.12-39-8.12-41.91-8.12-41.91
	c-13.83-47.29-47-146.59-45.22-249.73c1.78-103.14,64.02-142.26,90.7-138.71c26.67,3.56,42.68,28.45,46.23,97.81
	S609,822.75,609,822.75C587.66,881.43,591.22,917,591.22,917c96.02-129.82,120.93-213.4,120.93-213.4l-24.9-37.34L740.59,627.14
	L740.59,627.14z"/>
<path class="st2" d="M587.68,608.92c44.31,8.86,74.84-59.08,62.03-92.56c-7.46-19.5-23.93-26.63-39.32-27.05
	c-18.5,6.68-41.46,25.28-56.54,58.51C553.06,567.65,556.26,602.64,587.68,608.92"/>
<path class="st1" d="M587.68,608.92c44.31,8.86,74.84-59.08,62.03-92.56c-7.46-19.5-23.93-26.63-39.32-27.05
	c-18.5,6.68-41.46,25.28-56.54,58.51C553.06,567.65,556.26,602.64,587.68,608.92L587.68,608.92z"/>
<path class="st3" d="M670.55,629.49c3.19-17.15,4.88-32.68,4.24-45.03c-3.56-69.35-19.56-94.25-46.23-97.81
	c-5.02-0.67-11.28,0.17-18.17,2.66c15.38,0.42,31.86,7.55,39.32,27.05c10.4,27.18-7.77,77.08-38.69,90.15l21.96,56.57L670.55,629.49
	"/>
<path class="st1" d="M670.55,629.49c3.19-17.15,4.88-32.68,4.24-45.03c-3.56-69.35-19.56-94.25-46.23-97.81
	c-5.02-0.67-11.28,0.17-18.17,2.66c15.38,0.42,31.86,7.55,39.32,27.05c10.4,27.18-7.77,77.08-38.69,90.15l21.96,56.57L670.55,629.49
	L670.55,629.49z"/>
<path class="st3" d="M576.24,604.78c-20.77-11.52-23.07-39.86-22.38-56.96c-9.18,20.22-15.44,45.85-15.99,77.54
	c-0.1,5.72-0.07,11.42,0.03,17.11l23.18,16.66L576.24,604.78"/>
<path class="st1" d="M576.24,604.78c-20.77-11.52-23.07-39.86-22.38-56.96c-9.18,20.22-15.44,45.85-15.99,77.54
	c-0.1,5.72-0.07,11.42,0.03,17.11l23.18,16.66L576.24,604.78L576.24,604.78z"/>
<path class="st3" d="M567.94,634.56l-6.85,24.58l-23.18-16.66c1.12,59.17,12.85,116.15,24.8,161.74
	c5.29-43.64,15.42-121.46,23.99-129.32C586.69,674.89,573.1,647.71,567.94,634.56"/>
<path class="st1" d="M567.94,634.56l-6.85,24.58l-23.18-16.66c1.12,59.17,12.85,116.15,24.8,161.74
	c5.29-43.64,15.42-121.46,23.99-129.32C586.69,674.89,573.1,647.71,567.94,634.56L567.94,634.56z"/>
<path class="st3" d="M632.97,663.07l-11.55-29.74l-16.03,36.64c0,0-4.47,80.78,14.85,124.08c14.82-38.98,40.18-110.05,50.31-164.56
	L632.97,663.07"/>
<path class="st1" d="M632.97,663.07l-11.55-29.74l-16.03,36.64c0,0-4.47,80.78,14.85,124.08c14.82-38.98,40.18-110.05,50.31-164.56
	L632.97,663.07L632.97,663.07z"/>
<path class="st4" d="M605.4,669.97l16.03-36.64l-10.41-26.83c-7.16,3.03-15.01,4.08-23.34,2.41c-4.34-0.87-8.12-2.3-11.44-4.14
	l-8.3,29.78c5.16,13.15,18.75,40.33,18.75,40.33c-0.01,0.01-0.03,0.03-0.04,0.04l18.72-4.52
	C605.39,670.15,605.4,669.97,605.4,669.97"/>
<path class="st1" d="M605.4,669.97l16.03-36.64l-10.41-26.83c-7.16,3.03-15.01,4.08-23.34,2.41c-4.34-0.87-8.12-2.3-11.44-4.14
	l-8.3,29.78c5.16,13.15,18.75,40.33,18.75,40.33c-0.01,0.01-0.03,0.03-0.04,0.04l18.72-4.52
	C605.39,670.15,605.4,669.97,605.4,669.97L605.4,669.97z"/>
<path class="st4" d="M605.38,670.41l-18.72,4.52c-8.56,8.05-18.67,85.7-23.96,129.28c7.61,29.05,15.31,53.49,20.39,70.88
	c0,0,0,2.91,8.12,41.91c0,0-3.56-35.57,17.78-94.25c0,0,4.54-11.07,11.25-28.7C601.72,752.53,605.07,676.58,605.38,670.41"/>
<path class="st1" d="M605.38,670.41l-18.72,4.52c-8.56,8.05-18.67,85.7-23.96,129.28c7.61,29.05,15.31,53.49,20.39,70.88
	c0,0,0,2.91,8.12,41.91c0,0-3.56-35.57,17.78-94.25c0,0,4.54-11.07,11.25-28.7C601.72,752.53,605.07,676.58,605.38,670.41
	L605.38,670.41z"/>
<path class="st5" d="M603.13,469.21c0,0-22.22-34.92-7.94-66.67c14.28-31.74,12.7-53.97,12.7-53.97
	c26.79-8.93,31.02-29.13,31.65-36.72c-0.95,1.17-1.49,1.8-1.49,1.8s1.59-47.62-38.09-47.62c-39.68,0-44.45,28.57-44.45,28.57
	l25.4,36.51c0,0,15.87,17.46-1.59,26.98l-12.7,6.35c0,0-14.28,7.94-20.63-4.76l-28.57-60.31c0,0-3.18-17.46,7.94-25.4
	c0,0,115.87-104.76-47.62-174.6c-36.51-20.63-158.72-23.81-226.98,63.49c-68.25,87.3-1.59,177.77-1.59,177.77
	c17.46,17.46,63.49,19.05,63.49,19.05c-14.28,50.79-38.09,63.49-38.09,63.49c-39.68,41.27-55.55,73.01-55.55,73.01
	c-15.87,90.47,20.63,53.97,20.63,53.97l50.79-49.2l3.18,34.92c89.25,37.65,246.06-87.18,246.06-87.18l-3.21,10.99
	c-7.94,20.63-88.89,55.55-88.89,55.55l6.35,9.52c-12.7,25.4,30.16,11.11,30.16,11.11c61.91,68.25,112.7,69.84,112.7,69.84
	c60.32-15.87,53.96-77.77,53.96-77.77C625.34,508.89,603.13,469.21,603.13,469.21"/>
<path class="st1" d="M603.13,469.21c0,0-22.22-34.92-7.94-66.67c14.28-31.74,12.7-53.97,12.7-53.97
	c26.79-8.93,31.02-29.13,31.65-36.72c-0.95,1.17-1.49,1.8-1.49,1.8s1.59-47.62-38.09-47.62c-39.68,0-44.45,28.57-44.45,28.57
	l25.4,36.51c0,0,15.87,17.46-1.59,26.98l-12.7,6.35c0,0-14.28,7.94-20.63-4.76l-28.57-60.31c0,0-3.18-17.46,7.94-25.4
	c0,0,115.87-104.76-47.62-174.6c-36.51-20.63-158.72-23.81-226.98,63.49c-68.25,87.3-1.59,177.77-1.59,177.77
	c17.46,17.46,63.49,19.05,63.49,19.05c-14.28,50.79-38.09,63.49-38.09,63.49c-39.68,41.27-55.55,73.01-55.55,73.01
	c-15.87,90.47,20.63,53.97,20.63,53.97l50.79-49.2l3.18,34.92c89.25,37.65,246.06-87.18,246.06-87.18l-3.21,10.99
	c-7.94,20.63-88.89,55.55-88.89,55.55l6.35,9.52c-12.7,25.4,30.16,11.11,30.16,11.11c61.91,68.25,112.7,69.84,112.7,69.84
	c60.32-15.87,53.96-77.77,53.96-77.77C625.34,508.89,603.13,469.21,603.13,469.21L603.13,469.21z M302.35,387.62
	c0.05-0.1,0.1-0.19,0.14-0.29l-0.01,0C302.44,387.42,302.4,387.52,302.35,387.62L302.35,387.62z"/>
<path class="st5" d="M260.04,388.58c-1.86,9.22-2.79,26.13,10.96,38.36c1.17-1.24,2.36-2.5,3.57-3.76c0,0,11.86-6.38,23.86-27.96
	C284.45,397.41,270.81,394.93,260.04,388.58"/>
<path class="st1" d="M260.04,388.58c-1.86,9.22-2.79,26.13,10.96,38.36c1.17-1.24,2.36-2.5,3.57-3.76c0,0,11.86-6.38,23.86-27.96
	C284.45,397.41,270.81,394.93,260.04,388.58L260.04,388.58z M300.16,392.02c-0.23,0.44-0.46,0.85-0.68,1.28
	C299.71,392.87,299.94,392.46,300.16,392.02L300.16,392.02z M279.33,461.27c0,0,29.52-28.26,42.86-1.59
	c7.94,15.87-31.74,41.27-31.74,41.27 M517.41,450.17c0,0,26.98-11.11,38.09,11.11 M615.82,291.44c0,0-25.4-6.35-34.92,12.7
	c0,0,28.56-14.28,23.81,15.87 M468.21,323.19c0,0-49.2,36.51-155.55,36.51 M479.32,251.76c0,5.26-4.26,9.52-9.52,9.52
	c-5.26,0-9.52-4.26-9.52-9.52c0-5.26,4.26-9.52,9.52-9.52C475.06,242.24,479.32,246.5,479.32,251.76L479.32,251.76z M534.87,212.08
	c0,7.01-5.68,12.7-12.7,12.7c-7.01,0-12.7-5.68-12.7-12.7c0-7.01,5.69-12.7,12.7-12.7C529.19,199.38,534.87,205.07,534.87,212.08
	L534.87,212.08z M499.96,181.92c0,8.76-7.11,15.87-15.87,15.87c-8.77,0-15.87-7.11-15.87-15.87c0-8.77,7.11-15.87,15.87-15.87
	C492.85,166.05,499.96,173.16,499.96,181.92L499.96,181.92z"/>
<path class="st3" d="M343.17,358.63c0.12,5.65,1.31,11.25,3.7,16.58c11.17,24.94,44.17,34.42,73.7,21.2
	c28.14-12.61,42.96-41.31,34.61-65.57C437.24,339.99,400.5,354.62,343.17,358.63"/>
<path class="st1" d="M343.17,358.63c0.12,5.65,1.31,11.25,3.7,16.58c11.17,24.94,44.17,34.42,73.7,21.2
	c28.14-12.61,42.96-41.31,34.61-65.57C437.24,339.99,400.5,354.62,343.17,358.63L343.17,358.63z"/>
<path class="st3" d="M249.17,340.65c0,0-2.56-3.48-6.17-9.73c-5.59,12.25-6.33,25.8-0.89,37.94c9.01,20.11,32.21,30.15,56.34,26.36
	c4.99-8.99,10.01-20.6,14.21-35.52C312.66,359.69,266.63,358.11,249.17,340.65"/>
<path class="st1" d="M249.17,340.65c0,0-2.56-3.48-6.17-9.73c-5.59,12.25-6.33,25.8-0.89,37.94c9.01,20.11,32.21,30.15,56.34,26.36
	c4.99-8.99,10.01-20.6,14.21-35.52C312.66,359.69,266.63,358.11,249.17,340.65L249.17,340.65z"/>
<path d="M420.31,344.77c-4.24,1.32-8.79,2.61-13.61,3.86c-1.24,1.79-1.97,3.96-1.97,6.3c0,6.14,4.97,11.11,11.11,11.11
	c6.14,0,11.11-4.97,11.11-11.11C426.94,350.39,424.21,346.5,420.31,344.77"/>
<path d="M273.41,353.34c-1.26,1.8-2.01,3.99-2.01,6.35c0,6.14,4.97,11.11,11.11,11.11c6.14,0,11.11-4.97,11.11-11.11
	c0-0.67-0.08-1.33-0.2-1.96C287.23,356.78,280.21,355.38,273.41,353.34"/>
<path class="st6" d="M564.93,87.29c-56.09-13.95-87.2,12.09-87.2,12.09c15.53,6.63,28.52,13.58,39.35,20.73
	C523.17,110.02,536.77,94.5,564.93,87.29"/>
<path class="st1" d="M564.93,87.29c-56.09-13.95-87.2,12.09-87.2,12.09c15.53,6.63,28.52,13.58,39.35,20.73
	C523.17,110.02,536.77,94.5,564.93,87.29L564.93,87.29z"/>
<path class="st6" d="M638.04,123.19c-27.66-19.88-52.13-30.68-73.11-35.9c-28.17,7.21-41.76,22.72-47.85,32.82
	c18.15,11.98,30.15,24.5,37.64,37.01c13.63-12.34,42.87-33.04,85.18-32.54C639.28,124.12,638.68,123.65,638.04,123.19"/>
<path class="st1" d="M638.04,123.19c-27.66-19.88-52.13-30.68-73.11-35.9c-28.17,7.21-41.76,22.72-47.85,32.82
	c18.15,11.98,30.15,24.5,37.64,37.01c13.63-12.34,42.87-33.04,85.18-32.54C639.28,124.12,638.68,123.65,638.04,123.19L638.04,123.19
	z"/>
<path class="st6" d="M553.45,237.04c-11.75,22.16-28.1,36.95-28.1,36.95c-11.11,7.94-7.94,25.4-7.94,25.4l28.57,60.31
	c6.35,12.7,20.63,4.76,20.63,4.76l12.7-6.35c17.46-9.52,1.59-26.98,1.59-26.98l-25.4-36.51c0,0,4.17-24.98,37.17-28.22
	C583.14,255.29,565.03,243.77,553.45,237.04"/>
<path class="st1" d="M553.45,237.04c-11.75,22.16-28.1,36.95-28.1,36.95c-11.11,7.94-7.94,25.4-7.94,25.4l28.57,60.31
	c6.35,12.7,20.63,4.76,20.63,4.76l12.7-6.35c17.46-9.52,1.59-26.98,1.59-26.98l-25.4-36.51c0,0,4.17-24.98,37.17-28.22
	C583.14,255.29,565.03,243.77,553.45,237.04L553.45,237.04z"/>
<path class="st6" d="M565.06,190.16c0.94,17.24-4.47,33.42-11.61,46.88c11.58,6.74,29.69,18.26,39.23,29.36
	c2.29-0.22,4.7-0.35,7.27-0.35c39.68,0,38.09,47.62,38.09,47.62s20.63-23.86,34-56.76C618.44,188.49,580.65,186.73,565.06,190.16"/>
<path class="st1" d="M565.06,190.16c0.94,17.24-4.47,33.42-11.61,46.88c11.58,6.74,29.69,18.26,39.23,29.36
	c2.29-0.22,4.7-0.35,7.27-0.35c39.68,0,38.09,47.62,38.09,47.62s20.63-23.86,34-56.76C618.44,188.49,580.65,186.73,565.06,190.16
	L565.06,190.16z"/>
<path class="st6" d="M639.9,124.59c-42.31-0.5-71.54,20.2-85.18,32.54c6.67,11.16,9.75,22.3,10.34,33.03
	c15.59-3.43,53.38-1.67,106.99,66.75C688.15,217.27,693.68,164.53,639.9,124.59"/>
<path class="st1" d="M639.9,124.59c-42.31-0.5-71.54,20.2-85.18,32.54c6.67,11.16,9.75,22.3,10.34,33.03
	c15.59-3.43,53.38-1.67,106.99,66.75C688.15,217.27,693.68,164.53,639.9,124.59L639.9,124.59z"/>
<path class="st3" d="M539.67,448.7L539.67,448.7c0,0-10.81,8.6-28.35,20.6c2.64,6.74,9.17,15.52,24.67,7.97
	C559.31,465.92,539.67,448.7,539.67,448.7"/>
<path class="st1" d="M539.67,448.7L539.67,448.7c0,0-10.81,8.6-28.35,20.6c2.64,6.74,9.17,15.52,24.67,7.97
	C559.31,465.92,539.67,448.7,539.67,448.7L539.67,448.7z"/>
<path class="st3" d="M525.1,459.7l-3.34,1.83c-5.72,4.14-14.82,10.54-26.29,17.97c1.75,6.49,7.66,19.81,25.69,11.03
	C544.48,479.18,525.1,459.7,525.1,459.7"/>
<path class="st1" d="M525.1,459.7l-3.34,1.83c-5.72,4.14-14.82,10.54-26.29,17.97c1.75,6.49,7.66,19.81,25.69,11.03
	C544.48,479.18,525.1,459.7,525.1,459.7L525.1,459.7z"/>
<path class="st3" d="M475.23,492.1c1.79,6.54,7.73,19.64,25.66,10.91c20.69-10.07,7.77-26.54,4.6-30.13
	C497.12,478.53,486.84,485.18,475.23,492.1"/>
<path class="st1" d="M475.23,492.1c1.79,6.54,7.73,19.64,25.66,10.91c20.69-10.07,7.77-26.54,4.6-30.13
	C497.12,478.53,486.84,485.18,475.23,492.1L475.23,492.1z"/>
<path class="st3" d="M448.22,507.27c1.02,5.11,6.08,22.68,26.13,12.91c20.94-10.19,7.46-26.94,4.48-30.25
	C469.47,495.61,459.16,501.52,448.22,507.27"/>
<path class="st1" d="M448.22,507.27c1.02,5.11,6.08,22.68,26.13,12.91c20.94-10.19,7.46-26.94,4.48-30.25
	C469.47,495.61,459.16,501.52,448.22,507.27L448.22,507.27z"/>
<path class="st3" d="M418.27,521.71c1.05,7.11,5.43,18.56,23.1,13.59c23.55-6.62,11-27.13,9.51-29.43
	C440.5,511.4,429.53,516.8,418.27,521.71"/>
<path class="st1" d="M418.27,521.71c1.05,7.11,5.43,18.56,23.1,13.59c23.55-6.62,11-27.13,9.51-29.43
	C440.5,511.4,429.53,516.8,418.27,521.71L418.27,521.71z"/>
<path class="st3" d="M387.95,533.3c1.23,7.13,5.87,17.74,23,12.92c18.98-5.34,14.51-19.68,11.28-26.26
	C411.02,524.98,399.5,529.55,387.95,533.3"/>
<path class="st1" d="M387.95,533.3c1.23,7.13,5.87,17.74,23,12.92c18.98-5.34,14.51-19.68,11.28-26.26
	C411.02,524.98,399.5,529.55,387.95,533.3L387.95,533.3z"/>
<path class="st3" d="M356.9,541.15c1.44,7.09,6.36,16.73,22.84,12.09c15.23-4.28,15.36-14.37,13.14-21.59
	C380.84,535.79,368.74,539.1,356.9,541.15"/>
<path class="st1" d="M356.9,541.15c1.44,7.09,6.36,16.73,22.84,12.09c15.23-4.28,15.36-14.37,13.14-21.59
	C380.84,535.79,368.74,539.1,356.9,541.15L356.9,541.15z"/>
</svg>
