<?xml version="1.0" encoding="utf-8"?>
<!-- Generator: Adobe Illustrator 23.0.1, SVG Export Plug-In . SVG Version: 6.00 Build 0)  -->
<svg version="1.1" id="Layer_1" xmlns="http://www.w3.org/2000/svg" xmlns:xlink="http://www.w3.org/1999/xlink" x="0px" y="0px"
	 viewBox="0 0 1000 1000" style="enable-background:new 0 0 1000 1000;" xml:space="preserve">
<style type="text/css">
	.st0{fill:#FFFFFF;}
	.st1{fill:none;stroke:#000000;stroke-width:12.4144;stroke-linejoin:round;}
	.st2{fill:#FFCC00;}
	.st3{fill:#CB993E;}
</style>
<g>
	<path class="st0" d="M346,748.42l-42.67,73.71c0,0,3.88,65.95,85.35,93.11l62.07-85.35C450.75,829.89,357.64,779.46,346,748.42"/>
	<path class="st1" d="M346,748.42l-42.67,73.71c0,0,3.88,65.95,85.35,93.11l62.07-85.35C450.75,829.89,357.64,779.46,346,748.42
		L346,748.42z"/>
	<path class="st0" d="M582.65,806.62l38.79,108.63c0,0,62.07-19.4,77.59-65.95l-38.79-96.99
		C660.24,752.3,664.12,794.98,582.65,806.62"/>
	<path class="st1" d="M582.65,806.62l38.79,108.63c0,0,62.07-19.4,77.59-65.95l-38.79-96.99
		C660.24,752.3,664.12,794.98,582.65,806.62L582.65,806.62z"/>
	<polyline class="st0" points="411.22,884.25 450.75,829.89 411.22,884.25 	"/>
	<polygon class="st1" points="411.22,884.25 450.75,829.89 411.22,884.25 	"/>
	<path class="st0" d="M450.75,829.89c38.8,7.76,69.83,93.11,69.83,93.11l62.07-116.38c57.25-8.18,76.53-32.49,77.59-54.31
		c-28.93-22.6-43.37-22.6-148.27-22.6C363.02,729.7,346,748.42,346,748.42l1.87,3.91C365.13,783.5,450.75,829.89,450.75,829.89"/>
	<path class="st2" d="M509.69,775.77c-50.93,0-95.77-24.78-121.95-62.33l-11.06,68.6c31.2,24.63,74.06,47.86,74.06,47.86
		c38.8,7.76,69.83,93.11,69.83,93.11l62.07-116.38c24.19-3.46,40.81-9.66,52.29-16.65l1.28-83.56
		C610.91,747.86,563.75,775.77,509.69,775.77"/>
	<path class="st1" d="M509.69,775.77c-50.93,0-95.77-24.78-121.95-62.33l-11.06,68.6c31.2,24.63,74.06,47.86,74.06,47.86
		c38.8,7.76,69.83,93.11,69.83,93.11l62.07-116.38c24.19-3.46,40.81-9.66,52.29-16.65l1.28-83.56
		C610.91,747.86,563.75,775.77,509.69,775.77L509.69,775.77z M429.1,143.13c0,0-12.15-89.92,82.63-88.7
		c71.69,0.92,74.12,81.41,74.12,81.41 M444.82,157.71c0,0-10.08-74.62,68.57-73.61c59.5,0.76,61.52,67.56,61.52,67.56
		 M469.59,151.64c0,0-6.18-45.78,42.07-45.16c36.5,0.47,37.74,41.45,37.74,41.45"/>
	<path class="st2" d="M667.21,328.53c0,0,35.29-213.34-153.77-212.16c-198.05,1.24-179.15,215.64-179.15,215.64l7.29-0.02
		c-38.79,28.07-5.91,52.27-5.91,52.27l22.12,77.7l21.15,114.3c23.6-46.36,73.45-78.4,131.25-78.59
		c56.48-0.18,105.55,30.14,130.05,74.64l20.18-87.01l19.07-117.92C695.18,335.73,667.21,328.53,667.21,328.53"/>
	<path class="st1" d="M667.21,328.53c0,0,35.29-213.34-153.77-212.16c-198.05,1.24-179.15,215.64-179.15,215.64l7.29-0.02
		c-38.79,28.07-5.91,52.27-5.91,52.27l22.12,77.7l21.15,114.3c23.6-46.36,73.45-78.4,131.25-78.59
		c56.48-0.18,105.55,30.14,130.05,74.64l20.18-87.01l19.07-117.92C695.18,335.73,667.21,328.53,667.21,328.53L667.21,328.53z"/>
	<path class="st2" d="M361.54,482.27l-0.48-0.13c0,0-44.96,1.22-35.24,54.68c7,38.48,35.4,32.9,50.77,26.75L361.54,482.27"/>
	<path class="st1" d="M361.54,482.27l-0.48-0.13c0,0-44.96,1.22-35.24,54.68c7,38.48,35.4,32.9,50.77,26.75L361.54,482.27
		L361.54,482.27z M365.92,500.37c0,0-21.87,7.29-20.66,25.51 M367.98,516.43c-0.44-0.13-0.71-0.21-0.71-0.21
		s-31.99,28.73,2.16,19.47c0.62-0.17,1.18-0.34,1.76-0.51L367.98,516.43L367.98,516.43z"/>
	<path class="st2" d="M663.13,477.42l0.49-0.1c0,0,44.82,3.74,32.1,56.58c-9.15,38.03-37.19,30.85-52.19,23.85L663.13,477.42"/>
	<path class="st1" d="M663.13,477.42l0.49-0.1c0,0,44.82,3.74,32.1,56.58c-9.15,38.03-37.19,30.85-52.19,23.85L663.13,477.42
		L663.13,477.42z M657.74,495.24c0,0,21.43,8.51,19.19,26.64 M654.77,511.16c0.45-0.11,0.72-0.17,0.72-0.17s30.32,30.48-3.25,19.32
		c-0.62-0.21-1.16-0.41-1.73-0.61L654.77,511.16L654.77,511.16z"/>
	<path class="st0" d="M694,421.39c0,48.32-39.17,87.49-87.49,87.49c-48.32,0-87.49-39.17-87.49-87.49
		c0-48.32,39.17-87.49,87.49-87.49C654.82,333.9,694,373.07,694,421.39"/>
	<path class="st1" d="M694,421.39c0,48.32-39.17,87.49-87.49,87.49c-48.32,0-87.49-39.17-87.49-87.49
		c0-48.32,39.17-87.49,87.49-87.49C654.82,333.9,694,373.07,694,421.39L694,421.39z"/>
	<path class="st0" d="M495.93,421.39c0,48.32-39.17,87.49-87.49,87.49c-48.32,0-87.49-39.17-87.49-87.49
		c0-48.32,39.17-87.49,87.49-87.49C456.76,333.9,495.93,373.07,495.93,421.39"/>
	<path class="st1" d="M495.93,421.39c0,48.32-39.17,87.49-87.49,87.49c-48.32,0-87.49-39.17-87.49-87.49
		c0-48.32,39.17-87.49,87.49-87.49C456.76,333.9,495.93,373.07,495.93,421.39L495.93,421.39z"/>
	<path d="M641.74,465.14c0,6.71-5.44,12.15-12.15,12.15c-6.71,0-12.15-5.44-12.15-12.15c0-6.71,5.44-12.15,12.15-12.15
		C636.3,452.99,641.74,458.43,641.74,465.14"/>
	<path d="M390.22,465.14c0,6.71-5.44,12.15-12.15,12.15s-12.15-5.44-12.15-12.15c0-6.71,5.44-12.15,12.15-12.15
		S390.22,458.43,390.22,465.14"/>
	<path class="st3" d="M655.93,636.73c0,76.79-65.48,139.04-146.24,139.04s-146.23-62.25-146.23-139.04
		c0-76.79,65.47-139.04,146.23-139.04S655.93,559.94,655.93,636.73"/>
	<path class="st1" d="M655.93,636.73c0,76.79-65.48,139.04-146.24,139.04s-146.23-62.25-146.23-139.04
		c0-76.79,65.47-139.04,146.23-139.04S655.93,559.94,655.93,636.73L655.93,636.73z M474.06,675.35c0,0,15.79-20.66,41.31-18.22
		 M492.29,728.81c0,0,27.95,12.15,43.74-2.43"/>
	<path d="M522.15,697.91c0,6.71-5.44,12.15-12.15,12.15c-6.71,0-12.15-5.44-12.15-12.15c0-6.71,5.44-12.15,12.15-12.15
		C516.71,685.76,522.15,691.2,522.15,697.91"/>
	<path class="st2" d="M489.85,446.91c0,0-25.52,0-29.16,41.32c-3.64,41.31,43.75,36.45,43.75,36.45s46.17,6.08,47.38-38.88
		c0.92-34.01-30.38-41.32-30.38-41.32"/>
	<path class="st1" d="M489.85,446.91c0,0-25.52,0-29.16,41.32c-3.64,41.31,43.75,36.45,43.75,36.45s46.17,6.08,47.38-38.88
		c0.92-34.01-30.38-41.32-30.38-41.32 M495.23,446.86c0,0-30.89,0.05-34.54,41.37c-3.64,41.31,43.75,36.45,43.75,36.45
		s46.17,6.08,47.38-38.88c0.92-34.01-33.83-39.97-33.83-39.97"/>
</g>
</svg>
