<?xml version="1.0" encoding="utf-8"?>
<!-- Generator: Adobe Illustrator 23.0.1, SVG Export Plug-In . SVG Version: 6.00 Build 0)  -->
<svg version="1.1" id="Layer_1" xmlns="http://www.w3.org/2000/svg" xmlns:xlink="http://www.w3.org/1999/xlink" x="0px" y="0px"
	 viewBox="0 0 1000 1000" style="enable-background:new 0 0 1000 1000;" xml:space="preserve">
<style type="text/css">
	.st0{fill:#941900;}
	.st1{fill:#FFD700;stroke:#000000;stroke-width:6.3291;stroke-miterlimit:10;}
	.st2{fill:#FFFFFF;stroke:#000000;stroke-width:6.3291;stroke-miterlimit:10;}
	.st3{fill:#FFD700;}
	.st4{fill:#EECD80;stroke:#000000;stroke-width:6.3291;stroke-miterlimit:10;}
	.st5{fill:#FFFFFF;stroke:#000000;stroke-width:6.4017;stroke-miterlimit:10;}
	.st6{fill:none;stroke:#000000;stroke-width:6.95;stroke-linecap:round;stroke-miterlimit:10;}
	.st7{fill:none;stroke:#000000;stroke-width:6.3291;stroke-miterlimit:10;}
</style>
<g>
	<g>
		<path class="st0" d="M342.49,499.65v0.03c0.66-0.02,1.33-0.03,1.99-0.03H342.49z"/>
		<path class="st1" d="M297.89,540.45c0,22.52,20.87,40.78,46.6,40.78c0,0,100.97,4.48,101.08,4.45c2.2,0.33,15.48-0.85,69.05,22.33
			c0.3,0.13,0.47,0.47,0.47,0.81v235.81c0,0.54,0.46,0.97,1,0.92l70.92-7.14c0.25-0.02,0.47-0.14,0.63-0.33
			c5.06-6.52,89.24-116.25,65.97-178.05c-0.02-0.05-0.05-0.09-0.08-0.14c-0.59-1.03-7.69-13.18-10.03-20.44
			c-0.33-1.06,1.14-1.69,1.66-0.73c4.05,7.47,14.67,21.23,28.84,21.23c18.48,0,33.48-19.02,33.48-42.47
			c0-23.47-15-42.47-33.48-42.47c-2.18,0-4.3,0.27-6.36,0.76c-0.73,0.19-1.31-0.54-1.03-1.23c4.19-9.62,8.07-20.65,11.63-32.61
			c25.35-84.89,35.63-217.18,35.63-237.61c0-7.44-6.33-27.91-6.33-31.52c0-4.79-17.55-49.89-57.26-80.98
			c-4.29-3.35-8.89-6.53-13.69-9.51c-16.03-9.94-34.4-17.72-51.68-23.28c-21.12-6.82-40.65-10.28-52.44-10.28
			c-4.6,0-9.73,0.14-15.22,0.51c-17.23,1.08-38.04,4.11-57.22,10.74c-11.71,4.05-22.8,9.43-32.1,16.52
			c-35.7,27.17-51.69,73.47-58.8,89.41c-17.72,39.78-26.9,89.91-21.03,100.32c2.67,4.65,63.92,33.35,101.53,51.28
			c17.74,8.45,32.28,22.36,41.58,39.65c6.16,11.42,14.18,25.78,23.5,41.11c0.36,0.62-0.06,1.39-0.78,1.39H344.49
			c-0.66,0-1.33,0.02-1.99,0.03C317.7,500.61,297.89,518.5,297.89,540.45z"/>
		<circle class="st2" cx="372.29" cy="441.49" r="74.4"/>
		<circle class="st2" cx="503.79" cy="454.64" r="83.71"/>
		<path d="M460.47,467.32h35.19l-18.78,24.02c9.88,7.84,22.86,11.83,36.7,9.76c25.14-3.76,46.6-20.47,44.04-46.27
			c-0.01-0.09-12.25,8-21.14,8c-9.49,0-17.55-7.89-17.92-17.57c-0.4-10.44,7.78-19.05,17.93-19.05c5.65,0,4.15-0.09,9.05,0.03
			c-7.1-16.7-18.53-22.3-36.95-22.7c-27.11-0.6-50.33,21.37-50.33,49.04C458.26,457.72,459.03,462.67,460.47,467.32z"/>
		<path d="M318.12,454.26h30.49l-16.27,20.82c8.56,6.8,19.81,10.25,31.8,8.46c21.79-3.26,40.38-17.74,38.16-40.09
			c-0.01-0.08-10.61,6.93-18.32,6.93c-8.22,0-15.2-6.84-15.53-15.22c-0.35-9.05,6.74-16.51,15.54-16.51c4.89,0,3.6-0.08,7.84,0.02
			c-6.16-14.47-16.05-19.32-32.02-19.67c-23.49-0.52-43.61,18.52-43.61,42.5C316.2,445.94,316.88,450.23,318.12,454.26z"/>
		<path class="st1" d="M328.95,501.98c12.2,8.75,27.17,13.91,43.34,13.91c17.55,0,33.66-6.08,46.38-16.23h-74.18
			c-0.66,0-1.33,0.02-1.99,0.03C337.77,499.86,333.21,500.66,328.95,501.98z"/>
		<path class="st3" d="M421.44,502.92h-18.17c0,0-54.72-2.86-64.92,0s-15.72,4.86-15.72,4.86l17.15,23.72l92.08,13.88L421.44,502.92
			z"/>
		<path class="st4" d="M364.46,712.72c0-15.73-78.99-13.88-90.04-35.52c-17.3-33.9,41.94-51.4,40.83-74.32
			c-1.43-29.6,118.42-14.73,148.43-11.23c70.22,8.19,123.72,70.18,123.72,140.87S528.25,858.7,457.56,858.7
			c-46.74,0-78.09-34.41-109.64-64.92C331.57,777.96,364.46,736.68,364.46,712.72z"/>
		<g>
			<path class="st5" d="M453.28,701.69c6.88-0.69,13.69-2,20.19-4.29c5.58-1.96,11.66-3.27,18.07-3.78
				c29.67-2.35,55.17,13.35,56.97,35.06c1.8,21.71-20.79,41.22-50.46,43.57c-1.95,0.15-3.87,0.23-5.78,0.23
				c-30.81,9.4-118.73,6.09-118.73,6.09l-9.82-70.85C400.95,706.26,430.8,703.94,453.28,701.69z"/>
			<line class="st5" x1="511.43" y1="694.79" x2="511.43" y2="769.93"/>
			<line class="st5" x1="461.77" y1="700.48" x2="466.43" y2="776.88"/>
			<line class="st5" x1="413.4" y1="705.04" x2="419.71" y2="779.13"/>
		</g>
		<path class="st6" d="M665.39,618.12c0-9.55,7.73-17.29,17.29-17.29"/>
		<path class="st7" d="M658.58,536.5c0-0.46,13.32-47.62,13.32-47.62l24.19,55.43l33.53-45.17v53.59"/>
		<path class="st7" d="M460.05,159.97c19.18-6.63,39.98-9.67,57.22-10.74c5.49-0.36,10.62-0.51,15.22-0.51
			c11.79,0,31.31,3.47,52.44,10.28c-5.11-26.91-31.95-47.03-63.77-46.27C490.17,113.5,464.84,133.82,460.05,159.97z"/>
		<path class="st7" d="M517.26,149.23c5.49-0.36,10.62-0.51,15.22-0.51c21.42,0,68.48,11.47,104.11,33.56
			c0.63-3.35,0.92-6.82,0.84-10.33c-0.76-30.89-29.68-55.24-64.64-54.4C548.29,118.14,527.34,130.97,517.26,149.23z"/>
		<path class="st2" d="M587.4,840.4c0.23,2.65,0,56.15,0,56.15s-53.47,14.29-54.69,14.29s-32.05,0-32.05,0l-12.16-55.76l99.01-18.14
			"/>
		<polygon class="st2" points="434.59,855.81 424.1,910.84 389.8,893.28 391.13,833.33 		"/>
		<ellipse class="st3" cx="414.4" cy="565.41" rx="96.67" ry="16.76"/>
		
			<ellipse transform="matrix(0.2431 -0.97 0.97 0.2431 -214.3852 858.9275)" class="st3" cx="443.19" cy="566.84" rx="16.76" ry="96.67"/>
		
			<ellipse transform="matrix(0.1136 -0.9935 0.9935 0.1136 -179.4835 936.0213)" class="st3" cx="434.82" cy="568.6" rx="16.76" ry="96.67"/>
	</g>
	<rect x="425.77" y="495.53" transform="matrix(-1 -4.465684e-11 4.465684e-11 -1 853.9374 992.9839)" width="2.4" height="1.92"/>
</g>
</svg>
