<?xml version="1.0" encoding="utf-8"?>
<!-- Generator: Adobe Illustrator 23.0.1, SVG Export Plug-In . SVG Version: 6.00 Build 0)  -->
<svg version="1.1" id="Layer_1" xmlns="http://www.w3.org/2000/svg" xmlns:xlink="http://www.w3.org/1999/xlink" x="0px" y="0px"
	 viewBox="0 0 1000 1000" style="enable-background:new 0 0 1000 1000;" xml:space="preserve">
<style type="text/css">
	.st0{fill-rule:evenodd;clip-rule:evenodd;fill:#FFCC00;}
	
		.st1{clip-path:url(#SVGID_2_);fill:none;stroke:#000000;stroke-width:8.9568;stroke-linecap:round;stroke-linejoin:round;stroke-miterlimit:2.6131;}
	.st2{fill:none;stroke:#000000;stroke-width:9.5211;stroke-linecap:round;stroke-linejoin:round;stroke-miterlimit:2.6131;}
	.st3{fill-rule:evenodd;clip-rule:evenodd;fill:#FFFFFF;}
	.st4{fill-rule:evenodd;clip-rule:evenodd;}
	.st5{fill:none;stroke:#000000;stroke-width:4.4788;stroke-linecap:round;stroke-linejoin:round;stroke-miterlimit:2.6131;}
	
		.st6{clip-path:url(#SVGID_4_);fill:none;stroke:#000000;stroke-width:4.4788;stroke-linecap:round;stroke-linejoin:round;stroke-miterlimit:2.6131;}
	
		.st7{clip-path:url(#SVGID_6_);fill:none;stroke:#000000;stroke-width:9.5211;stroke-linecap:round;stroke-linejoin:round;stroke-miterlimit:2.6131;}
	.st8{fill-rule:evenodd;clip-rule:evenodd;fill:#FF6600;}
	
		.st9{clip-path:url(#SVGID_8_);fill:none;stroke:#000000;stroke-width:9.5211;stroke-linecap:round;stroke-linejoin:round;stroke-miterlimit:2.6131;}
</style>
<g>
	<path class="st0" d="M782.97,343.09c32.4-32.24,52.83-71.38,64.34-108.32c-27.74-17.13-58.37-28.06-90.98-34.77
		c10.28-37.14,13.19-74.61,7.22-112.51c-39.85,0.97-78.11,12.38-115.8,27.56c-15.26-32.92-37.33-64.81-71.53-94.86
		c-35.62,27.18-66.23,60.87-91.81,101.06c-34.65-24.97-69.51-42.7-104.69-49.83c-25.44,42.04-35.74,82.75-35.69,122.55
		c-44.16,0.81-87.46,7.29-129.22,23.88c6.35,47.04,22.25,86.69,41.61,123.68c-33.9,18.85-63.69,40.73-88.51,66.28
		c22.85,27.35,50.06,48.79,83.62,61.6c-18.39,30.17-30.48,61.15-37.35,92.8c32.38,11.95,64.56,16.26,96.6,15.35
		c0.17,27.93,5.28,51.79,12.62,73.79c28.73-2.07,56.61-9.76,83.9-21.29c3.05,16.47,5.31,33.06,2.01,50.49
		c-4.48-1.57-9.35-2.1-14.31-1.35c-16.75,2.54-28.26,18.78-25.62,36.14c1.28,8.42,9.83,19.21,15.91,24.08
		c-49,62.02-90.42,129.41-112.88,206.79c154.41,0.86,308.81,1.73,463.22,2.59c-28.38-48.55-52.26-97.78-69.59-148
		c-2.5-8.39-7.09-13.94-16.29-13.24c-4.6-14.06-7.91-28.32-9.36-42.86c-0.27-1.8-0.55-3.61-0.82-5.41c2.62,0.45,5.35,0.5,8.1,0.08
		c14.46-2.2,24.38-16.37,22.08-31.55s-15.98-25.78-30.44-23.58c-2.75,0.42-5.34,1.27-7.71,2.48c-0.17-1.16-0.35-2.31-0.53-3.47
		c-1.17-22.61,5.6-40.78,20.3-54.5c12.31-6.15,18.28-16.13,19.93-28.73c53.5-9.43,96.27-38.32,134.16-76.06
		c12.02-13.73,7.76-24.99-3.9-35.12c-14.22-9.43-27.05-24.81-39.32-42.6C794.06,408.9,797.16,375.05,782.97,343.09"/>
	<g>
		<g>
			<defs>
				<rect id="SVGID_1_" x="163.42" y="15.71" width="688.37" height="937.29"/>
			</defs>
			<clipPath id="SVGID_2_">
				<use xlink:href="#SVGID_1_"  style="overflow:visible;"/>
			</clipPath>
			<path class="st1" d="M782.97,343.09c32.4-32.24,52.83-71.38,64.34-108.32c-27.74-17.13-58.37-28.06-90.98-34.77
				c10.28-37.14,13.19-74.61,7.22-112.51c-39.85,0.97-78.11,12.38-115.8,27.56c-15.26-32.92-37.33-64.81-71.53-94.86
				c-35.62,27.18-66.23,60.87-91.81,101.06c-34.65-24.97-69.51-42.7-104.69-49.83c-25.44,42.04-35.74,82.75-35.69,122.55
				c-44.16,0.81-87.46,7.29-129.22,23.88c6.35,47.04,22.25,86.69,41.61,123.68c-33.9,18.85-63.69,40.73-88.51,66.28
				c22.85,27.35,50.06,48.79,83.62,61.6c-18.39,30.17-30.48,61.15-37.35,92.8c32.38,11.95,64.56,16.26,96.6,15.35
				c0.17,27.93,5.28,51.79,12.62,73.79c28.73-2.07,56.61-9.76,83.9-21.29c3.05,16.47,5.31,33.06,2.01,50.49
				c-4.48-1.57-9.35-2.1-14.31-1.35c-16.75,2.54-28.26,18.78-25.62,36.14c1.28,8.42,9.83,19.21,15.91,24.08
				c-49,62.02-90.42,129.41-112.88,206.79c154.41,0.86,308.81,1.73,463.22,2.59c-28.38-48.55-52.26-97.78-69.59-148
				c-2.5-8.39-7.09-13.94-16.29-13.24c-4.6-14.06-7.91-28.32-9.36-42.86c-0.27-1.8-0.55-3.61-0.82-5.41c2.62,0.45,5.35,0.5,8.1,0.08
				c14.46-2.2,24.38-16.37,22.08-31.55s-15.98-25.78-30.44-23.58c-2.75,0.42-5.34,1.27-7.71,2.48c-0.17-1.16-0.35-2.31-0.53-3.47
				c-1.17-22.61,5.6-40.78,20.3-54.5c12.31-6.15,18.28-16.13,19.93-28.73c53.5-9.43,96.27-38.32,134.16-76.06
				c12.02-13.73,7.76-24.99-3.9-35.12c-14.22-9.43-27.05-24.81-39.32-42.6C794.06,408.9,797.16,375.05,782.97,343.09L782.97,343.09z
				"/>
		</g>
	</g>
	<path class="st2" d="M465.31,444.19c-14.03,2.05-28.21,0.43-42.71-9.26 M474.07,375.49c-15-5.92-26.54-14.99-34.62-27.21
		 M530.69,330.51c-2.58-13.21-7.16-26.12-16.15-38.37 M591.49,332.6c4.48-14.2,4.17-29.24,0.58-44.84"/>
	<path class="st3" d="M741.24,457.42c47.16-30.64,61.6-67.16,45.4-109.18c-21.55-28.04-48.49-42.48-83.32-37.03
		c-30.46,6.81-52.74,22.86-65.79,49.32c2.32,27.19,4.64,54.37,6.96,81.56c13.63-0.91,26.85-2.42,37.13-8.09
		C713.61,423.33,736.94,425.85,741.24,457.42"/>
	<path class="st2" d="M741.24,457.42c47.16-30.64,61.6-67.16,45.4-109.18c-21.55-28.04-48.49-42.48-83.32-37.03
		c-30.46,6.81-52.74,22.86-65.79,49.32c2.32,27.19,4.64,54.37,6.96,81.56c13.63-0.91,26.85-2.42,37.13-8.09
		C713.61,423.33,736.94,425.85,741.24,457.42L741.24,457.42z"/>
	<path class="st3" d="M542.91,329.98c52.27-7.93,100.07,19.71,107.19,66.65s-29.63,100.23-81.89,108.15
		c-52.27,7.93-96.76-22.05-103.88-68.99C457.2,388.86,490.64,337.9,542.91,329.98"/>
	<path class="st2" d="M542.91,329.98c52.27-7.93,100.07,19.71,107.19,66.65s-29.63,100.23-81.89,108.15
		c-52.27,7.93-96.76-22.05-103.88-68.99C457.2,388.86,490.64,337.9,542.91,329.98L542.91,329.98z"/>
	<path class="st4" d="M527.73,443.29c6.57-1,12.72,3.33,13.67,9.63c0.95,6.3-3.63,12.25-10.2,13.25c-6.58,1-12.72-3.33-13.67-9.63
		C516.58,450.24,521.16,444.29,527.73,443.29"/>
	<path class="st2" d="M527.73,443.29c6.57-1,12.72,3.33,13.67,9.63c0.95,6.3-3.63,12.25-10.2,13.25c-6.58,1-12.72-3.33-13.67-9.63
		C516.58,450.24,521.16,444.29,527.73,443.29L527.73,443.29z"/>
	<path class="st4" d="M710.65,411.4c3.44-0.52,6.71,2.07,7.27,5.78s-1.78,7.16-5.23,7.68c-3.44,0.52-6.71-2.08-7.27-5.78
		C704.86,415.37,707.21,411.93,710.65,411.4"/>
	<path class="st2" d="M710.65,411.4c3.44-0.52,6.71,2.07,7.27,5.78s-1.78,7.16-5.23,7.68c-3.44,0.52-6.71-2.08-7.27-5.78
		C704.86,415.37,707.21,411.93,710.65,411.4L710.65,411.4z M506.07,583.21c-11.43,10.18-17.1,22.51-17.02,36.98 M674.62,599.28
		c-52.44,14.69-109.14,13.14-173.96,1.94 M741.28,456.24c2.98,21.51-13.54,38.9-42.96,51.01 M404.6,520.23
		c-30.32-21.97-63.23,4.84-58.54,34.38c4.34,25.83,21.46,34.99,51.34,27.49c7.9,16.8,11.18,34.29,11.33,52.26 M395.73,531.78
		c-13.39,5.15-22.63,13.35-25.8,26.01 M394.71,558.71c-5.73-3.24-10.69-8.86-14.88-16.87"/>
	<path class="st3" d="M395.01,678.9c16.87-2.56,32.71,9.11,35.26,25.98c2.56,16.86-9.11,32.71-25.98,35.26
		c-16.86,2.56-32.7-9.11-35.26-25.97C366.48,697.3,378.15,681.46,395.01,678.9"/>
	<path class="st5" d="M395.01,678.9c16.87-2.56,32.71,9.11,35.26,25.98c2.56,16.86-9.11,32.71-25.98,35.26
		c-16.86,2.56-32.7-9.11-35.26-25.97C366.48,697.3,378.15,681.46,395.01,678.9L395.01,678.9z"/>
	<path class="st3" d="M455.77,701.71c18.51-2.81,36,10.68,38.93,30.04c2.94,19.35-9.77,37.42-28.28,40.23s-36-10.68-38.94-30.03
		C424.56,722.58,437.26,704.51,455.77,701.71"/>
	<path class="st5" d="M455.77,701.71c18.51-2.81,36,10.68,38.93,30.04c2.94,19.35-9.77,37.42-28.28,40.23s-36-10.68-38.94-30.03
		C424.56,722.58,437.26,704.51,455.77,701.71L455.77,701.71z"/>
	<path class="st3" d="M524.74,708.12c17.69-2.68,34.3,9.55,36.99,27.24c2.68,17.69-9.56,34.3-27.24,36.98
		c-17.69,2.68-34.3-9.55-36.98-27.24C494.81,727.42,507.05,710.8,524.74,708.12"/>
	<path class="st5" d="M524.74,708.12c17.69-2.68,34.3,9.55,36.99,27.24c2.68,17.69-9.56,34.3-27.24,36.98
		c-17.69,2.68-34.3-9.55-36.98-27.24C494.81,727.42,507.05,710.8,524.74,708.12L524.74,708.12z"/>
	<path class="st3" d="M588.07,700.04c16.25-2.46,31.51,8.78,33.97,25.03s-8.78,31.51-25.03,33.97s-31.51-8.78-33.97-25.03
		C560.58,717.77,571.82,702.51,588.07,700.04"/>
	<path class="st5" d="M588.07,700.04c16.25-2.46,31.51,8.78,33.97,25.03s-8.78,31.51-25.03,33.97s-31.51-8.78-33.97-25.03
		C560.58,717.77,571.82,702.51,588.07,700.04L588.07,700.04z"/>
	<path class="st3" d="M638.96,685.45c14.39-2.18,27.92,7.77,30.1,22.17c2.19,14.4-7.78,27.92-22.17,30.1
		c-14.4,2.18-27.92-7.78-30.1-22.17C614.6,701.15,624.56,687.63,638.96,685.45"/>
	<g>
		<g>
			<defs>
				<rect id="SVGID_3_" x="163.42" y="15.71" width="688.37" height="937.29"/>
			</defs>
			<clipPath id="SVGID_4_">
				<use xlink:href="#SVGID_3_"  style="overflow:visible;"/>
			</clipPath>
			<path class="st6" d="M638.96,685.45c14.39-2.18,27.92,7.77,30.1,22.17c2.19,14.4-7.78,27.92-22.17,30.1
				c-14.4,2.18-27.92-7.78-30.1-22.17C614.6,701.15,624.56,687.63,638.96,685.45L638.96,685.45z"/>
		</g>
		<g>
			<defs>
				<rect id="SVGID_5_" x="163.42" y="15.71" width="688.37" height="937.29"/>
			</defs>
			<clipPath id="SVGID_6_">
				<use xlink:href="#SVGID_5_"  style="overflow:visible;"/>
			</clipPath>
			<path class="st7" d="M693.86,313.06c0.01-4.49,0.02-8.98-0.7-13.71c-0.26-1.69-2.4-4.47-2.95-5.77c-2.02-4.18-4.13-9.04-5.43-13
				c-1.13-2.93-3.73-6.34-4.71-8.26 M745.63,312.81c-0.41-2.7,1-2.57,1.41-4.36c1.73-6.82,5.22-15.65,4.15-22.74
				c-0.87-5.74-1.8-11.82-2.67-17.56 M773.95,326.47c3.71-0.56,5.26-6.32,7.65-8.76c1.2-1.22,2.29-3.11,3.44-4.67
				c1.15-1.55,2.24-3.45,3.44-4.67s2.31-0.69,3.07-2.54c1.28-2.96,4.87-6.61,5.22-11.15 M791.43,359.74
				c4.39-0.67,8.86-3.07,12.42-4.65c2.94-1.14,13.28-5.81,14.72-7.76c1.43-1.94,2.86-3.89,3.13-6.69 M391.17,945.78
				c18.17-51.88,44.39-94.91,78.67-129.08"/>
		</g>
	</g>
	<path class="st8" d="M654.91,791.15c2.59,0.45,5.17,0.89,7.76,1.34c4.98,5.13,6.92,12.39,5.82,21.79
		c22.33,53.13,43.31,97.29,63.15,134.02c-113.9-0.78-227.81-1.56-341.71-2.34c15.31-39.9,33.51-72.89,54.09-100.15
		C524.95,862.9,594.29,841.52,654.91,791.15"/>
	<g>
		<g>
			<defs>
				<rect id="SVGID_7_" x="163.42" y="15.71" width="688.37" height="937.29"/>
			</defs>
			<clipPath id="SVGID_8_">
				<use xlink:href="#SVGID_7_"  style="overflow:visible;"/>
			</clipPath>
			<path class="st9" d="M654.91,791.15c2.59,0.45,5.17,0.89,7.76,1.34c4.98,5.13,6.92,12.39,5.82,21.79
				c22.33,53.13,43.31,97.29,63.15,134.02c-113.9-0.78-227.81-1.56-341.71-2.34c15.31-39.9,33.51-72.89,54.09-100.15
				C524.95,862.9,594.29,841.52,654.91,791.15L654.91,791.15z"/>
		</g>
	</g>
</g>
</svg>
