<?xml version="1.0" encoding="utf-8"?>
<!-- Generator: Adobe Illustrator 23.0.1, SVG Export Plug-In . SVG Version: 6.00 Build 0)  -->
<svg version="1.1" id="Layer_1" xmlns="http://www.w3.org/2000/svg" xmlns:xlink="http://www.w3.org/1999/xlink" x="0px" y="0px"
	 viewBox="0 0 1000 1000" style="enable-background:new 0 0 1000 1000;" xml:space="preserve">
<style type="text/css">
	.st0{fill:#34B3D1;stroke:#000000;stroke-width:17.5318;stroke-linecap:round;stroke-linejoin:round;}
	.st1{fill:#FFCC00;}
	.st2{fill:none;stroke:#000000;stroke-width:13.5027;stroke-linecap:round;stroke-linejoin:round;}
	.st3{fill:#34B3D1;}
	.st4{fill:#FFFFFF;}
	.st5{fill:none;stroke:#000000;stroke-width:13.2965;stroke-linecap:round;stroke-linejoin:round;}
	.st6{fill:#FF0000;}
</style>
<g>
	<path class="st0" d="M375.92,859.15c0,0,214.02,20.2,274.62,25.52c0,0,19.21-41-22.65-73.98l-164.02-12.84l-102.84-53.71
		C361.03,744.13,326.37,842.57,375.92,859.15L375.92,859.15z"/>
	<g>
		<path class="st1" d="M876.59,388.2c-9.38-31.27-93.8-28.14-93.8-28.14s34.39-131.32,12.5-146.96
			C773.41,197.48,679.61,235,679.61,235s-46.9-131.32-78.17-131.32s-112.56,87.55-112.56,87.55s-93.8-93.8-137.57-65.66
			c-43.77,28.14-37.52,143.83-37.52,143.83s-134.45-18.76-156.34,21.89c-21.89,40.65,71.91,137.57,71.91,137.57
			s-115.69,62.53-106.31,106.31c9.38,43.77,118.81,75.04,118.81,75.04s-71.91,71.92-43.78,109.44
			c28.14,37.52,115.69,15.63,115.69,15.63l-0.68,74.93c37.07,15.89,90.02-15.89,90.02-15.89c29.82,33.13,107.33,33.1,161.17,28.43
			c5.26,5.04,12.23,8.69,21.51,9.46c19.13,1.59,29-7.42,34.09-16.64c0.2-0.04,0.34-0.06,0.34-0.06l87.52-133.38
			c62.53-75.04,9.38-103.18,9.38-103.18l12.51-25.01C729.64,553.92,885.97,419.47,876.59,388.2"/>
		<path class="st2" d="M876.59,388.2c-9.38-31.27-93.8-28.14-93.8-28.14s34.39-131.32,12.5-146.96
			C773.41,197.48,679.61,235,679.61,235s-46.9-131.32-78.17-131.32s-112.56,87.55-112.56,87.55s-93.8-93.8-137.57-65.66
			c-43.77,28.14-37.52,143.83-37.52,143.83s-134.45-18.76-156.34,21.89c-21.89,40.65,71.91,137.57,71.91,137.57
			s-115.69,62.53-106.31,106.31c9.38,43.77,118.81,75.04,118.81,75.04s-71.91,71.92-43.78,109.44
			c28.14,37.52,115.69,15.63,115.69,15.63l-0.68,74.93c37.07,15.89,90.02-15.89,90.02-15.89c29.82,33.13,107.33,33.1,161.17,28.43
			c5.26,5.04,12.23,8.69,21.51,9.46c19.13,1.59,29-7.42,34.09-16.64c0.2-0.04,0.34-0.06,0.34-0.06l87.52-133.38
			c62.53-75.04,9.38-103.18,9.38-103.18l12.51-25.01C729.64,553.92,885.97,419.47,876.59,388.2L876.59,388.2z M548.29,779.04
			c0,0,0,50.03,37.52,53.15c37.52,3.13,39.46-34.56,39.46-34.56 M376.32,647.72c0,0-68.79-6.25-43.77,65.66c0,0,25.01,56.28,71.91,0
			l-1.33,80.93 M345.05,685.24c0,0,15.63-25.01,31.27-9.38c0,0-31.27,12.51-9.38,28.14"/>
		<path class="st3" d="M583.75,270.41c0,0-62.11,37.81-91.82,18.9c-29.7-18.9,18.91-83.72,18.91-83.72s24.3-27.01,72.91,43.21
			l10.8,2.7c0,0,64.81-45.91,78.31-37.81c13.5,8.1,21.61,64.81,0,91.82c-21.61,27.01-70.21-27.01-70.21-27.01L583.75,270.41"/>
		<path class="st2" d="M583.75,270.41c0,0-62.11,37.81-91.82,18.9c-29.7-18.9,18.91-83.72,18.91-83.72s24.3-27.01,72.91,43.21
			l10.8,2.7c0,0,64.81-45.91,78.31-37.81c13.5,8.1,21.61,64.81,0,91.82c-21.61,27.01-70.21-27.01-70.21-27.01L583.75,270.41
			L583.75,270.41z"/>
		<path class="st3" d="M591.19,233.41c0,0-17.92-0.83-17.92,15.42c0,13.5-0.33,26.98-0.33,26.98s2.7,16.2,16.2,13.5
			c0,0,13.71,1.19,17.46-14.23v-25.42C606.61,249.66,609.11,233.41,591.19,233.41"/>
		<path class="st2" d="M591.19,233.41c0,0-17.92-0.83-17.92,15.42c0,13.5-0.33,26.98-0.33,26.98s2.7,16.2,16.2,13.5
			c0,0,13.71,1.19,17.46-14.23v-25.42C606.61,249.66,609.11,233.41,591.19,233.41L591.19,233.41z M582.68,557.05h65.66
			c0,0,37.52,3.13,34.4,43.78c-3.13,40.65-40.64,31.27-40.64,31.27h-40.65 M370.07,435.11l43.77,37.52 M441.98,375.7
			c0,0,37.52,56.28,31.27,78.17 M523.27,369.44l3.13,81.29 M679.61,369.44c0,0,6.25,56.28-3.13,68.79 M764.03,400.71
			c0,0-18.76,37.52-37.52,46.9 M801.55,453.87c0,0-25.01,28.14-53.15,34.39"/>
		<path class="st4" d="M601.44,522.65c0,55.26-46.2,100.05-103.18,100.05c-56.99,0-103.18-44.8-103.18-100.05
			c0-55.26,46.2-100.05,103.18-100.05C555.25,422.6,601.44,467.39,601.44,522.65"/>
		<path class="st5" d="M601.44,522.65c0,55.26-46.2,100.05-103.18,100.05c-56.99,0-103.18-44.8-103.18-100.05
			c0-55.26,46.2-100.05,103.18-100.05C555.25,422.6,601.44,467.39,601.44,522.65L601.44,522.65z"/>
		<path class="st4" d="M764.03,503.89c0-50.08-42.7-90.68-95.37-90.68c-38.01,0-70.81,21.14-86.13,51.73
			c11.9,16.31,18.91,36.2,18.91,57.7c0,12.09-2.25,23.66-6.31,34.39h53.21c0,0,32.93,2.75,34.52,36.52
			C728.79,587.04,764.03,549.38,764.03,503.89"/>
		<path class="st2" d="M764.03,503.89c0-50.08-42.7-90.68-95.37-90.68c-38.01,0-70.81,21.14-86.13,51.73
			c11.9,16.31,18.91,36.2,18.91,57.7c0,12.09-2.25,23.66-6.31,34.39h53.21c0,0,32.93,2.75,34.52,36.52
			C728.79,587.04,764.03,549.38,764.03,503.89L764.03,503.89z"/>
		<path d="M495.13,510.15c0,8.63-7,15.63-15.63,15.63c-8.63,0-15.63-7-15.63-15.63c0-8.63,7-15.63,15.63-15.63
			C488.14,494.51,495.13,501.51,495.13,510.15"/>
		<path d="M704.62,510.15c0,8.63-7,15.63-15.63,15.63c-8.63,0-15.63-7-15.63-15.63c0-8.63,7-15.63,15.63-15.63
			C697.62,494.51,704.62,501.51,704.62,510.15"/>
		<path class="st6" d="M640.68,684.53c0,0-70.86,51.53-51.54,109.51c19.33,57.98,109.52-16.1,109.52-16.1s64.42-38.65,48.32-93.41
			C730.87,629.77,640.68,684.53,640.68,684.53"/>
		<path class="st2" d="M640.68,684.53c0,0-70.86,51.53-51.54,109.51c19.33,57.98,109.52-16.1,109.52-16.1s64.42-38.65,48.32-93.41
			C730.87,629.77,640.68,684.53,640.68,684.53L640.68,684.53z"/>
		<path class="st6" d="M630.04,770.52c0,0,65.68,98.3,119.18,38.11c46.8-52.65-31.2-111.14-31.2-111.14s-2.86-11.21-23.4,6.5
			c-18.85,16.25-9.75,22.75-9.75,22.75l25.34,28.6c0,0,9.28,6.31,0,15.6c-9.29,9.29-18.2-1.3-18.2-1.3l-26-29.25
			c0,0-8.45-11.05-26,6.5C622.48,764.43,630.04,770.52,630.04,770.52"/>
		<path class="st2" d="M630.04,770.52c0,0,65.68,98.3,119.18,38.11c46.8-52.65-31.2-111.14-31.2-111.14s-2.86-11.21-23.4,6.5
			c-18.85,16.25-9.75,22.75-9.75,22.75l25.34,28.6c0,0,9.28,6.31,0,15.6c-9.29,9.29-18.2-1.3-18.2-1.3l-26-29.25
			c0,0-8.45-11.05-26,6.5C622.48,764.43,630.04,770.52,630.04,770.52L630.04,770.52z"/>
	</g>
</g>
</svg>
