<?xml version="1.0" encoding="utf-8"?>
<!-- Generator: Adobe Illustrator 23.0.1, SVG Export Plug-In . SVG Version: 6.00 Build 0)  -->
<svg version="1.1" id="Layer_1" xmlns="http://www.w3.org/2000/svg" xmlns:xlink="http://www.w3.org/1999/xlink" x="0px" y="0px"
	 viewBox="0 0 250 250" style="enable-background:new 0 0 250 250;" xml:space="preserve">
<style type="text/css">
	.st0{fill:#FFFFFF;}
	.st1{fill:#3875B4;}
	.st2{fill:none;stroke:#000000;stroke-width:1.9473;stroke-linecap:round;stroke-linejoin:round;}
	.st3{fill:#FFCC00;}
	.st4{fill:none;stroke:#000000;stroke-width:1.6073;stroke-linecap:round;stroke-linejoin:round;}
	.st5{fill:#7FC97F;stroke:#000000;stroke-width:1.9473;stroke-linecap:round;stroke-linejoin:round;}
</style>
<g>
	<circle class="st0" cx="106.93" cy="129.81" r="6.11"/>
	<circle class="st0" cx="111.59" cy="118.18" r="6.11"/>
	<circle class="st0" cx="117.58" cy="106.77" r="6.11"/>
	<circle class="st0" cx="125.14" cy="94.24" r="6.11"/>
	<path class="st1" d="M173.72,139.2c3.27-10.18-6.92-16.67-6.92-16.67c2.23-10.35-5.7-17.55-5.7-17.55
		c2.92-11.31-7.18-18.32-7.18-18.32c5.36-9.84-7.1-18.85-7.1-18.85c4.49-11.06-10.23-19.36-10.23-19.36
		c5.45-10.36-9.19-19.19-9.19-19.19c0.06-10.17-14.39-13.61-14.39-13.61C102.29,2.64,90.49,12.5,90.49,12.5
		c-13.59-8.65-18.32,7.18-18.32,7.18C58.5,14.77,58.11,30.25,58.11,30.25c-13.64,4.73-6.73,18.19-6.73,18.19
		c-6.41,9.67,2.49,17.55,2.49,17.55c-3.35,13.92,9.53,17.1,9.53,17.1c-4.39,13.75,8.23,18.49,8.23,18.49
		c-7.6,16.98,8.14,19.02,8.14,19.02c-5.96,13.49,5.36,19.63,5.36,19.63c-5.61,14.62,5.8,20.24,5.8,20.24
		c-5.25,18.97,5.53,18.59,5.53,18.59c-5.53,10.88,3.44,18.25,3.44,18.25c-3.26,16.62,7.53,16.24,7.53,16.24
		c1.85,8.34,13.85,10.31,13.85,10.31l0.1-1.84c-0.97-5.88-2.03-11.36-2.86-13.07c0,0-8.28,8.76-13.54-4.35
		c0,0-1.46-10.22,8.11-10.36l0.74-0.07c4.61-8.85-1.37-14.63-1.37-14.63c5.28-6.1-0.48-16.69-0.48-16.69
		c6.52-0.54,13.97-10.04,13.97-10.04c8.01,3.45,19.38-3.8,19.38-3.8c8.88,4.67,14.17-1.43,14.17-1.43
		c2.02,7.3,11.23,3.44,11.23,3.44c-2.93,8.1,6.73,11.28,6.73,11.28C182.53,147.61,173.72,139.2,173.72,139.2L173.72,139.2z"/>
	<path class="st2" d="M173.72,139.2c3.27-10.18-6.92-16.67-6.92-16.67c2.23-10.35-5.7-17.55-5.7-17.55
		c2.92-11.31-7.18-18.32-7.18-18.32c5.36-9.84-7.1-18.85-7.1-18.85c4.49-11.06-10.23-19.36-10.23-19.36
		c5.45-10.36-9.19-19.19-9.19-19.19c0.06-10.17-14.39-13.61-14.39-13.61C102.29,2.64,90.49,12.5,90.49,12.5
		c-13.59-8.65-18.32,7.18-18.32,7.18C58.5,14.77,58.11,30.25,58.11,30.25c-13.64,4.73-6.73,18.19-6.73,18.19
		c-6.41,9.67,2.49,17.55,2.49,17.55c-3.35,13.92,9.53,17.1,9.53,17.1c-4.39,13.75,8.23,18.49,8.23,18.49
		c-7.6,16.98,8.14,19.02,8.14,19.02c-5.96,13.49,5.36,19.63,5.36,19.63c-5.61,14.62,5.8,20.24,5.8,20.24
		c-5.25,18.97,5.53,18.59,5.53,18.59c-5.53,10.88,3.44,18.25,3.44,18.25c-3.26,16.62,7.53,16.24,7.53,16.24
		c1.85,8.34,13.85,10.31,13.85,10.31l0.1-1.84c-0.97-5.88-2.03-11.36-2.86-13.07c0,0-8.28,8.76-13.54-4.35
		c0,0-1.46-10.22,8.11-10.36l0.74-0.07c4.61-8.85-1.37-14.63-1.37-14.63c5.28-6.1-0.48-16.69-0.48-16.69
		c6.52-0.54,13.97-10.04,13.97-10.04c8.01,3.45,19.38-3.8,19.38-3.8c8.88,4.67,14.17-1.43,14.17-1.43
		c2.02,7.3,11.23,3.44,11.23,3.44c-2.93,8.1,6.73,11.28,6.73,11.28C182.53,147.61,173.72,139.2,173.72,139.2L173.72,139.2z"/>
	<path class="st3" d="M161.46,211.9c-0.1,0.04-0.22,0.06-0.32,0.1c0,0,1.36,4.34-1.48,5.93c-2.83,1.59-4.24,3.93-3.9,8.1l1.72,5.31
		l0.05,0.13l1.21,3.72c-1.24,1.59-2.18,3.72-2.86,6.22l-8.82,0.31c-5.49-10.01-10.75-9.12-10.75-9.12
		c-7.2-0.86-12.43,1.97-16.23,6.4c0.2-1.83,0.39-3.83,0.5-5.89c0.18-3.12,0.22-6.39-0.05-9.4c0.48,0.11,0.77,0.15,0.77,0.15
		l0.09-1.83c-0.96-5.89-2.04-11.36-2.86-13.07c0,0-8.28,8.77-13.54-4.36c0,0-1.47-10.21,8.11-10.35l0.74-0.07
		c4.62-8.86-1.38-14.63-1.38-14.63c5.28-6.1-0.49-16.7-0.49-16.7c6.52-0.54,13.98-10.04,13.98-10.04c8,3.44,19.37-3.8,19.37-3.8
		c8.88,4.66,14.17-1.44,14.17-1.44c2.01,7.3,11.22,3.45,11.22,3.45c-0.21,0.59-0.36,1.16-0.45,1.7c-0.09,0.54-0.12,1.05-0.09,1.54
		c0,0.23,0.03,0.47,0.06,0.71c0.03,0.23,0.08,0.45,0.12,0.67c0.01,0.02,0.01,0.02,0.01,0.02c0.09,0.36,0.22,0.7,0.34,1.02
		c0.1,0.24,0.22,0.45,0.33,0.67c0.13,0.21,0.26,0.43,0.39,0.63c0.11,0.16,0.23,0.3,0.34,0.45c0.1,0.13,0.21,0.25,0.32,0.38
		c0.2,0.23,0.41,0.44,0.62,0.65c0.01,0,0.04,0.02,0.06,0.05c0.22,0.19,0.43,0.39,0.65,0.56c0.02,0.02,0.05,0.04,0.07,0.05
		l-17.28,22.24c0,0,5.57,1.56,15.26-2.13c0,0,6.42-1.51,7.94,4.91c0.5,2.09,0.59,4.75-2.06,6.67c1.54,0.33,13.78,3.12,13.11,7.47
		C189.46,205.85,174.4,207.93,161.46,211.9z"/>
	<path class="st2" d="M190.48,199.31c0.67-4.35-11.57-7.14-13.11-7.47c2.64-1.92,2.55-4.58,2.06-6.67
		c-1.52-6.42-7.94-4.91-7.94-4.91c-9.69,3.69-15.26,2.13-15.26,2.13l17.28-22.24c-0.02-0.02-0.05-0.04-0.07-0.05
		c-0.22-0.17-0.43-0.37-0.65-0.56c-0.02-0.03-0.05-0.05-0.06-0.05c-0.21-0.21-0.43-0.43-0.62-0.65c-0.12-0.13-0.22-0.26-0.32-0.38
		c-0.11-0.16-0.23-0.3-0.34-0.45c-0.13-0.2-0.26-0.41-0.39-0.63c-0.11-0.23-0.23-0.44-0.33-0.67c-0.13-0.32-0.25-0.66-0.34-1.02
		c0,0,0,0-0.01-0.02c-0.05-0.21-0.09-0.44-0.12-0.67c-0.03-0.24-0.06-0.48-0.06-0.71c-0.02-0.49,0.01-1.01,0.09-1.54
		c0.09-0.54,0.24-1.11,0.45-1.7c0,0-9.21,3.85-11.22-3.45c0,0-5.29,6.1-14.17,1.44c0,0-11.37,7.24-19.37,3.8
		c0,0-7.46,9.49-13.98,10.04c0,0,5.77,10.6,0.49,16.7c0,0,5.99,5.77,1.38,14.63l-0.74,0.07c-9.58,0.14-8.11,10.35-8.11,10.35
		c5.26,13.13,13.54,4.36,13.54,4.36c0.82,1.7,1.9,7.18,2.86,13.07l-0.09,1.83c0,0-0.29-0.05-0.77-0.15c0.27,3,0.23,6.27,0.05,9.4
		c-0.1,2.06-0.29,4.07-0.5,5.89c3.81-4.43,9.04-7.26,16.23-6.4c0,0,5.25-0.89,10.75,9.12l8.82-0.31c0.69-2.5,1.63-4.64,2.86-6.22
		l-1.21-3.72l-0.05-0.13l-1.72-5.31c-0.34-4.17,1.07-6.52,3.9-8.1c2.83-1.59,1.48-5.93,1.48-5.93c0.1-0.04,0.22-0.06,0.32-0.1
		C174.4,207.93,189.46,205.85,190.48,199.31z M108.5,204.04c0,0,1.8-4.84,6.58-2.78c0,0-3.3-0.68-3.02,2.78c0,0,0.31,2.47,2.39,2.81
		 M131.62,215.37c-3.86-5.11,2.65-8.97,2.65-8.97 M130.74,210.75c0,0,17.39,2.85,30.72,1.14"/>
	<path class="st4" d="M116.59,173.58c0,0,6.83,2.74,8.97,1.2 M121.94,162.33c0,0,2.9,5.33,7.27,4.96 M133.98,154.6
		c0,0,1.16,7.74-0.01,9.97 M145.48,153.52l-1.58,11.33 M162.26,153.03c0,0,1.82,8.65,3.31,9.43 M171.04,162.01
		c0,0,4.18-4.17,5.31-7.75 M176.21,166.63c0,0,5.15-1.85,9.51-7.07 M178.8,172.17c0,0,6.12-1.16,9-3.92"/>
	<path class="st0" d="M156.8,179.81c-1.49,9.13-10.11,15.32-19.24,13.83c-9.13-1.49-15.32-10.11-13.83-19.24
		c1.49-9.13,10.11-15.32,19.24-13.83C152.11,162.06,158.3,170.68,156.8,179.81L156.8,179.81z"/>
	<path class="st2" d="M156.8,179.81c-1.49,9.13-10.11,15.32-19.24,13.83c-9.13-1.49-15.32-10.11-13.83-19.24
		c1.49-9.13,10.11-15.32,19.24-13.83C152.11,162.06,158.3,170.68,156.8,179.81L156.8,179.81z"/>
	<path class="st0" d="M169.02,159.52c-6.39-1.05-12.46,2.47-14.91,8.16c2.33,3.43,3.42,7.71,2.7,12.13
		c-0.13,0.79-0.33,1.55-0.56,2.3c0.11,0.13,0.22,0.24,0.34,0.36c1.35,0.26,6.61,0.94,14.9-2.21c0,0,3.68-0.87,6.13,1.5
		c1.42-1.79,2.43-3.95,2.82-6.36C181.67,167.87,176.55,160.76,169.02,159.52L169.02,159.52z"/>
	<path class="st4" d="M169.02,159.52c-6.39-1.05-12.46,2.47-14.91,8.16c2.33,3.43,3.42,7.71,2.7,12.13
		c-0.13,0.79-0.33,1.55-0.56,2.3c0.11,0.13,0.22,0.24,0.34,0.36c1.35,0.26,6.61,0.94,14.9-2.21c0,0,3.68-0.87,6.13,1.5
		c1.42-1.79,2.43-3.95,2.82-6.36C181.67,167.87,176.55,160.76,169.02,159.52L169.02,159.52z"/>
	<path d="M137.2,177.76c-0.26,1.59-1.76,2.67-3.36,2.41c-1.59-0.26-2.67-1.76-2.41-3.36c0.26-1.59,1.76-2.68,3.36-2.41
		C136.38,174.66,137.46,176.17,137.2,177.76L137.2,177.76z"/>
	<path d="M173.78,173.24c-0.26,1.59-1.76,2.68-3.36,2.41c-1.59-0.26-2.68-1.77-2.41-3.36c0.26-1.6,1.76-2.68,3.36-2.42
		C172.96,170.14,174.04,171.64,173.78,173.24L173.78,173.24z"/>
	<polygon class="st5" points="160.98,241.23 155.87,241.41 147.05,241.72 119.44,242.69 120.57,233.1 120.82,230.97 157.48,231.34 
		157.53,231.47 	"/>
</g>
</svg>
