<?xml version="1.0" encoding="utf-8"?>
<!-- Generator: Adobe Illustrator 23.0.1, SVG Export Plug-In . SVG Version: 6.00 Build 0)  -->
<svg version="1.1" id="Layer_1" xmlns="http://www.w3.org/2000/svg" xmlns:xlink="http://www.w3.org/1999/xlink" x="0px" y="0px"
	 viewBox="0 0 1000 1000" style="enable-background:new 0 0 1000 1000;" xml:space="preserve">
<style type="text/css">
	.st0{fill:#FFCC00;}
	.st1{fill:none;stroke:#000000;stroke-width:9.8379;stroke-linecap:round;stroke-linejoin:round;}
	.st2{fill:#7F4408;}
	.st3{fill:#FF0000;}
	.st4{fill:#FFFFFF;}
	.st5{fill:#1F7B26;}
</style>
<path class="st0" d="M617.78,583.58l-3.38,32.09c0,0,64.18,47.29,8.45,74.31v62.48c0,0-32.09,15.2-101.32,16.89
	C452.28,771.04,352.64,717,352.64,717l-6.76-189.15c0,0-74.3,27.02-79.37-40.53c-5.07-67.55,64.18-75.99,64.18-75.99l1.69,77.68
	c0,0,10.13,23.64,28.71,18.58c0,0,33.78,20.27,27.02-67.55c0,0-42.22-151.99,15.2-222.92c57.42-70.93,180.7-60.8,180.7-60.8
	s101.32,15.2,94.57,91.19c0,0,3.38,16.89,21.96,21.95c18.58,5.07,6.75,47.29,6.75,47.29l-103.02,87.82l57.42,3.38
	c0,0,36.25-1.33,33.78,45.6c0,0,5.07,48.98-81.07,28.71L617.78,583.58"/>
<path class="st1" d="M617.78,583.58l-3.38,32.09c0,0,64.18,47.29,8.45,74.31v62.48c0,0-32.09,15.2-101.32,16.89
	C452.28,771.04,352.64,717,352.64,717l-6.76-189.15c0,0-74.3,27.02-79.37-40.53c-5.07-67.55,64.18-75.99,64.18-75.99l1.69,77.68
	c0,0,10.13,23.64,28.71,18.58c0,0,33.78,20.27,27.02-67.55c0,0-42.22-151.99,15.2-222.92c57.42-70.93,180.7-60.8,180.7-60.8
	s101.32,15.2,94.57,91.19c0,0,3.38,16.89,21.96,21.95c18.58,5.07,6.75,47.29,6.75,47.29l-103.02,87.82l57.42,3.38
	c0,0,36.25-1.33,33.78,45.6c0,0,5.07,48.98-81.07,28.71L617.78,583.58L617.78,583.58z M435.39,392.75l-104.7,18.58"/>
<path class="st2" d="M779.91,544.74c0,0-67.56-67.55-86.13-70.93l-5.62,0.42c-9.27,11.19-30.31,20.05-77.88,5.77l-7.69,0.57
	c0,0-20.27-5.07-47.29,16.89l-72.62,69.24c0,0-10.13,16.89,8.44,15.2c0,0,158.75,33.78,287.1-13.51
	C778.22,568.38,796.79,565,779.91,544.74"/>
<path class="st1" d="M779.91,544.74c0,0-67.56-67.55-86.13-70.93l-5.62,0.42c-9.27,11.19-30.31,20.05-77.88,5.77l-7.69,0.57
	c0,0-20.27-5.07-47.29,16.89l-72.62,69.24c0,0-10.13,16.89,8.44,15.2c0,0,158.75,33.78,287.1-13.51
	C778.22,568.38,796.79,565,779.91,544.74L779.91,544.74z"/>
<path d="M577.25,634.24v-41.86c-50.8-2.98-86.13-10.49-86.13-10.49c-18.57,1.69-8.44-15.2-8.44-15.2l18.57-17.7
	c-31.44-8.63-82.64-15.09-87.8,21.08c0,0-4.09,18.19,8.73,37.82c13.33-2.53,37.84-4.12,63.88,9.46c0,0,46.82-19.33,64.68,36.67
	C584.19,654.46,625.13,652.06,577.25,634.24"/>
<path class="st1" d="M577.25,634.24v-41.86c-50.8-2.98-86.13-10.49-86.13-10.49c-18.57,1.69-8.44-15.2-8.44-15.2l18.57-17.7
	c-31.44-8.63-82.64-15.09-87.8,21.08c0,0-4.09,18.19,8.73,37.82c13.33-2.53,37.84-4.12,63.88,9.46c0,0,46.82-19.33,64.68,36.67
	C584.19,654.46,625.13,652.06,577.25,634.24L577.25,634.24z"/>
<path class="st3" d="M486.06,617.36c-26.04-13.59-50.55-11.99-63.88-9.46c11.89,18.19,38.29,37.62,95.97,44.93
	c0,0,15.3,0.98,32.59,1.2C532.88,598.03,486.06,617.36,486.06,617.36"/>
<path class="st1" d="M486.06,617.36c-26.04-13.59-50.55-11.99-63.88-9.46c11.89,18.19,38.29,37.62,95.97,44.93
	c0,0,15.3,0.98,32.59,1.2C532.88,598.03,486.06,617.36,486.06,617.36L486.06,617.36z M579.68,501.77c0,0-50.15,30.86-54.01,46.3
	 M602.83,497.92c0,0-34.73,38.58-34.73,54.01 M618.26,505.63l-19.29,54.01 M645.26,505.63c0,0,11.58,23.15,11.58,46.3
	 M660.69,509.49c0,0,30.86,34.72,30.86,50.15 M683.84,501.77c0,0,42.43,27.01,46.29,46.3 M294.19,459.33c0,0,27-11.57,34.72,0"/>
<path class="st4" d="M595.11,382.17c0,42.62-34.54,77.16-77.16,77.16c-42.61,0-77.15-34.54-77.15-77.16
	c0-42.61,34.54-77.16,77.15-77.16C560.56,305.01,595.11,339.56,595.11,382.17"/>
<path class="st1" d="M595.11,382.17c0,42.62-34.54,77.16-77.16,77.16c-42.61,0-77.15-34.54-77.15-77.16
	c0-42.61,34.54-77.16,77.15-77.16C560.56,305.01,595.11,339.56,595.11,382.17L595.11,382.17z"/>
<path class="st4" d="M668.42,305.01c-38.36,0-69.45,31.09-69.45,69.44c0,10.84,2.56,21.07,6.99,30.21l55.74,3.28
	c0,0,28.07-1.02,33.12,30.73c25.25-10.39,43.05-35.22,43.05-64.22C737.86,336.1,706.76,305.01,668.42,305.01"/>
<path class="st1" d="M668.42,305.01c-38.36,0-69.45,31.09-69.45,69.44c0,10.84,2.56,21.07,6.99,30.21l55.74,3.28
	c0,0,28.07-1.02,33.12,30.73c25.25-10.39,43.05-35.22,43.05-64.22C737.86,336.1,706.76,305.01,668.42,305.01L668.42,305.01z"/>
<path d="M500.97,386.03c0,7.67-6.21,13.89-13.89,13.89c-7.67,0-13.89-6.22-13.89-13.89c0-7.67,6.21-13.89,13.89-13.89
	C494.76,372.14,500.97,378.36,500.97,386.03"/>
<path d="M693.87,382.17c0,7.67-6.21,13.89-13.89,13.89c-7.67,0-13.89-6.22-13.89-13.89c0-7.67,6.21-13.89,13.89-13.89
	C687.66,368.28,693.87,374.5,693.87,382.17"/>
<path class="st1" d="M588.14,690.03c0,0,17.81,7.42,34.71-0.05"/>
<path class="st2" d="M463.74,73.58c-82.43,14.53-132.19,46.08-150.22,59.4c25.7,1.75,70.63,13.25,107.16,66.57
	c29.26-24.46,67.48-35.43,99.62-40.22C521.64,98.04,487.58,79.24,463.74,73.58"/>
<path class="st1" d="M463.74,73.58c-82.43,14.53-132.19,46.08-150.22,59.4c25.7,1.75,70.63,13.25,107.16,66.57
	c29.26-24.46,67.48-35.43,99.62-40.22C521.64,98.04,487.58,79.24,463.74,73.58L463.74,73.58z"/>
<path class="st2" d="M571.3,66.47c-11.42-0.63-18.62-0.45-18.62-0.45c-33.02,0-62.62,2.93-88.94,7.56
	c23.84,5.66,57.9,24.46,56.56,85.75c35.6-5.3,63.71-3.01,63.71-3.01s0.11,0.02,0.22,0.04C605.76,103.57,587.37,78,571.3,66.47"/>
<path class="st1" d="M571.3,66.47c-11.42-0.63-18.62-0.45-18.62-0.45c-33.02,0-62.62,2.93-88.94,7.56
	c23.84,5.66,57.9,24.46,56.56,85.75c35.6-5.3,63.71-3.01,63.71-3.01s0.11,0.02,0.22,0.04C605.76,103.57,587.37,78,571.3,66.47
	L571.3,66.47z"/>
<path class="st2" d="M313.52,132.98c-5.14,3.8-7.76,6.14-7.76,6.14c-84.87,138.89-46.29,405.09-46.29,405.09
	c15.41,84.78,61.62,102.83,90.77,105.43l-4.35-121.79c0,0-74.3,27.02-79.37-40.53c-5.07-67.55,64.18-75.99,64.18-75.99l1.69,77.68
	c0,0,10.13,23.64,28.71,18.58c0,0,33.78,20.27,27.02-67.55c0,0-42.22-151.99,15.2-222.92c5.28-6.52,11.12-12.35,17.37-17.57
	C384.14,146.23,339.21,134.73,313.52,132.98"/>
<path class="st1" d="M313.52,132.98c-5.14,3.8-7.76,6.14-7.76,6.14c-84.87,138.89-46.29,405.09-46.29,405.09
	c15.41,84.78,61.62,102.83,90.77,105.43l-4.35-121.79c0,0-74.3,27.02-79.37-40.53c-5.07-67.55,64.18-75.99,64.18-75.99l1.69,77.68
	c0,0,10.13,23.64,28.71,18.58c0,0,33.78,20.27,27.02-67.55c0,0-42.22-151.99,15.2-222.92c5.28-6.52,11.12-12.35,17.37-17.57
	C384.14,146.23,339.21,134.73,313.52,132.98L313.52,132.98z"/>
<path class="st2" d="M665.57,87.07c-32.75-15-71.73-19.37-94.27-20.6c16.07,11.54,34.46,37.11,12.93,89.89
	c2.5,0.4,32.65,5.47,58.29,22.26C679.19,145.87,671.25,104.52,665.57,87.07"/>
<path class="st1" d="M665.57,87.07c-32.75-15-71.73-19.37-94.27-20.6c16.07,11.54,34.46,37.11,12.93,89.89
	c2.5,0.4,32.65,5.47,58.29,22.26C679.19,145.87,671.25,104.52,665.57,87.07L665.57,87.07z"/>
<path class="st2" d="M720.72,148.3c-6.53,15.8-20.6,39.48-49.98,59.56c5.97,10.91,9.22,23.96,7.83,39.65c0,0,0.42,2,1.68,4.81
	c18.99-6.18,44.62-26.26,42.16-90.05C722.24,157.36,721.65,152.72,720.72,148.3"/>
<path class="st1" d="M720.72,148.3c-6.53,15.8-20.6,39.48-49.98,59.56c5.97,10.91,9.22,23.96,7.83,39.65c0,0,0.42,2,1.68,4.81
	c18.99-6.18,44.62-26.26,42.16-90.05C722.24,157.36,721.65,152.72,720.72,148.3L720.72,148.3z"/>
<path class="st2" d="M720.72,148.3c-6.29-30.02-28.67-49.1-55.16-61.23c5.69,17.45,13.62,58.8-23.04,91.54
	c11.18,7.32,21.46,16.9,28.23,29.25C700.13,187.78,714.19,164.1,720.72,148.3"/>
<path class="st1" d="M720.72,148.3c-6.29-30.02-28.67-49.1-55.16-61.23c5.69,17.45,13.62,58.8-23.04,91.54
	c11.18,7.32,21.46,16.9,28.23,29.25C700.13,187.78,714.19,164.1,720.72,148.3L720.72,148.3z"/>
<path class="st5" d="M348.2,713.96c0,0-27,42.44-15.43,77.16c0,0,104.17,104.17,181.32,100.31c0,0,15.44-104.17,50.16-119.6
	C564.25,771.83,371.35,756.4,348.2,713.96"/>
<path class="st1" d="M348.2,713.96c0,0-27,42.44-15.43,77.16c0,0,104.17,104.17,181.32,100.31c0,0,15.44-104.17,50.16-119.6
	C564.25,771.83,371.35,756.4,348.2,713.96L348.2,713.96z"/>
<path class="st5" d="M618.26,868.28c0,0-7.72-57.87-54.01-96.45c0,0,65.59-19.29,77.16-38.58c0,0,34.72,42.43,34.72,57.87
	C676.13,791.12,664.55,841.27,618.26,868.28"/>
<path class="st1" d="M618.26,868.28c0,0-7.72-57.87-54.01-96.45c0,0,65.59-19.29,77.16-38.58c0,0,34.72,42.43,34.72,57.87
	C676.13,791.12,664.55,841.27,618.26,868.28L618.26,868.28z"/>
<path class="st5" d="M568.67,775.69H558c-17.35,13.8-29.22,49.69-36.19,77.88c18.61,8.22,49.82,13.54,89.79-11.02
	C604.99,823.45,592.31,797.14,568.67,775.69"/>
<path class="st1" d="M568.67,775.69H558c-17.35,13.8-29.22,49.69-36.19,77.88c18.61,8.22,49.82,13.54,89.79-11.02
	C604.99,823.45,592.31,797.14,568.67,775.69L568.67,775.69z"/>
</svg>
